<svg xmlns="http://www.w3.org/2000/svg" xmlns:xlink="http://www.w3.org/1999/xlink" width="500" zoomAndPan="magnify" viewBox="0 0 375 374.999991" height="500" preserveAspectRatio="xMidYMid meet" version="1.0"><defs><g/><clipPath id="c6db7c168f"><path d="M 82.628906 113.878906 L 299.566406 113.878906 L 299.566406 118.292969 L 82.628906 118.292969 Z M 295.203125 118.292969 L 299.566406 118.292969 L 299.566406 266.285156 L 295.203125 266.285156 Z M 82.628906 118.292969 L 87.042969 118.292969 L 87.042969 266.285156 L 82.628906 266.285156 Z M 82.628906 266.285156 L 299.566406 266.285156 L 299.566406 270.652344 L 82.628906 270.652344 Z M 82.628906 266.285156 " clip-rule="nonzero"/></clipPath></defs><rect x="-37.5" width="450" fill="#ffffff" y="-37.499999" height="449.999989" fill-opacity="1"/><rect x="-37.5" width="450" fill="#ffffff" y="-37.499999" height="449.999989" fill-opacity="1"/><rect x="-37.5" width="450" fill="#000000" y="-37.499999" height="449.999989" fill-opacity="1"/><g clip-path="url(#c6db7c168f)"><path fill="#ffffff" d="M 82.628906 113.878906 L 299.6875 113.878906 L 299.6875 270.601562 L 82.628906 270.601562 Z M 82.628906 113.878906 " fill-opacity="1" fill-rule="nonzero"/></g><g fill="#ffffff" fill-opacity="1"><g transform="translate(121.390263, 179.192672)"><g><path d="M 19.496094 -30.386719 L 30.332031 -30.386719 L 30.332031 -37.984375 L 0.277344 -37.984375 L 0.277344 -30.386719 L 11.117188 -30.386719 L 11.117188 0 L 19.496094 0 Z M 19.496094 -30.386719 "/></g></g></g><g fill="#ffffff" fill-opacity="1"><g transform="translate(151.998739, 179.192672)"><g><path d="M 11.730469 0 L 11.730469 -37.984375 L 3.351562 -37.984375 L 3.351562 0 Z M 11.730469 0 "/></g></g></g><g fill="#ffffff" fill-opacity="1"><g transform="translate(167.079552, 179.192672)"><g><path d="M 50.71875 0 L 43.347656 -37.984375 L 33.402344 -37.984375 L 25.527344 -11.339844 L 17.59375 -37.984375 L 7.652344 -37.984375 L 0.277344 0 L 9.496094 0 L 13.964844 -26.199219 L 21.394531 0 L 29.605469 0 L 37.035156 -26.199219 L 41.503906 0 Z M 50.71875 0 "/></g></g></g><g fill="#ffffff" fill-opacity="1"><g transform="translate(218.075064, 179.192672)"><g><path d="M 25.359375 -7.597656 L 11.730469 -7.597656 L 11.730469 -15.25 L 24.800781 -15.25 L 24.800781 -22.847656 L 11.730469 -22.847656 L 11.730469 -30.386719 L 25.359375 -30.386719 L 25.359375 -37.984375 L 3.351562 -37.984375 L 3.351562 0 L 25.359375 0 Z M 25.359375 -7.597656 "/></g></g></g><g fill="#ffffff" fill-opacity="1"><g transform="translate(106.137043, 234.954634)"><g><path d="M 19.496094 -30.386719 L 30.332031 -30.386719 L 30.332031 -37.984375 L 0.277344 -37.984375 L 0.277344 -30.386719 L 11.117188 -30.386719 L 11.117188 0 L 19.496094 0 Z M 19.496094 -30.386719 "/></g></g></g><g fill="#ffffff" fill-opacity="1"><g transform="translate(136.745519, 234.954634)"><g><path d="M 24.019531 -14.523438 L 14.410156 -14.523438 L 19.214844 -28.042969 Z M 38.207031 0 L 22.789062 -37.984375 L 15.695312 -37.984375 L 0.277344 0 L 9.273438 0 L 12.007812 -7.652344 L 26.476562 -7.652344 L 29.214844 0 Z M 38.207031 0 "/></g></g></g><g fill="#ffffff" fill-opacity="1"><g transform="translate(175.229531, 234.954634)"><g><path d="M 21.671875 -11.117188 C 21.671875 -8.601562 19.550781 -6.535156 17.035156 -6.535156 L 11.730469 -6.535156 L 11.730469 -15.695312 L 17.035156 -15.695312 C 19.550781 -15.695312 21.671875 -13.574219 21.671875 -11.117188 Z M 19.046875 -26.980469 C 19.046875 -24.578125 17.035156 -22.566406 14.636719 -22.566406 L 11.730469 -22.566406 L 11.730469 -31.390625 L 14.636719 -31.390625 C 17.035156 -31.390625 19.046875 -29.4375 19.046875 -26.980469 Z M 30.21875 -10.890625 C 30.21875 -16.03125 26.757812 -19.4375 22.511719 -20.445312 C 25.359375 -21.730469 27.035156 -24.632812 27.035156 -28.488281 C 27.035156 -33.683594 22.902344 -37.984375 16.421875 -37.984375 L 3.351562 -37.984375 L 3.351562 0 L 18.710938 0 C 25.972656 0 30.21875 -4.355469 30.21875 -10.890625 Z M 30.21875 -10.890625 "/></g></g></g><g fill="#ffffff" fill-opacity="1"><g transform="translate(206.005569, 234.954634)"><g><path d="M 3.351562 0 L 25.359375 0 L 25.359375 -7.597656 L 11.730469 -7.597656 L 11.730469 -37.984375 L 3.351562 -37.984375 Z M 3.351562 0 "/></g></g></g><g fill="#ffffff" fill-opacity="1"><g transform="translate(233.318608, 234.954634)"><g><path d="M 25.359375 -7.597656 L 11.730469 -7.597656 L 11.730469 -15.25 L 24.800781 -15.25 L 24.800781 -22.847656 L 11.730469 -22.847656 L 11.730469 -30.386719 L 25.359375 -30.386719 L 25.359375 -37.984375 L 3.351562 -37.984375 L 3.351562 0 L 25.359375 0 Z M 25.359375 -7.597656 "/></g></g></g></svg>