<svg xmlns="http://www.w3.org/2000/svg" xmlns:xlink="http://www.w3.org/1999/xlink" width="300" zoomAndPan="magnify" viewBox="0 0 224.87999 225" height="300" preserveAspectRatio="xMidYMid meet" version="1.0"><defs><g/><clipPath id="da2366306b"><path d="M 0 0.0585938 L 224.761719 0.0585938 L 224.761719 224.9375 L 0 224.9375 Z M 0 0.0585938 " clip-rule="nonzero"/></clipPath><clipPath id="c8ee20b699"><path d="M 88.082031 67 L 136.804688 67 L 136.804688 113.332031 L 88.082031 113.332031 Z M 88.082031 67 " clip-rule="nonzero"/></clipPath><clipPath id="306d9940ec"><path d="M 114.105469 93.554688 L 114.105469 72.8125 C 114.105469 72.007812 114.871094 71.425781 115.644531 71.644531 L 135.914062 77.335938 C 136.4375 77.484375 136.800781 77.960938 136.800781 78.507812 L 136.800781 99.25 C 136.800781 100.054688 136.035156 100.636719 135.261719 100.421875 L 114.988281 94.726562 C 114.464844 94.578125 114.105469 94.101562 114.105469 93.554688 Z M 98.804688 80.082031 L 109.242188 83.015625 C 110.015625 83.230469 110.78125 82.648438 110.78125 81.84375 L 110.78125 71.183594 C 110.78125 70.636719 110.417969 70.160156 109.894531 70.011719 L 99.457031 67.082031 C 98.683594 66.863281 97.917969 67.445312 97.917969 68.25 L 97.917969 78.914062 C 97.917969 79.457031 98.28125 79.933594 98.804688 80.082031 Z M 109.894531 85.480469 L 89.625 79.785156 C 88.851562 79.566406 88.085938 80.148438 88.085938 80.953125 L 88.085938 101.695312 C 88.085938 102.242188 88.445312 102.71875 88.96875 102.867188 L 109.242188 108.5625 C 110.015625 108.777344 110.78125 108.195312 110.78125 107.390625 L 110.78125 86.648438 C 110.78125 86.105469 110.417969 85.625 109.894531 85.480469 Z M 126.082031 100.121094 L 115.644531 97.1875 C 114.871094 96.972656 114.105469 97.554688 114.105469 98.359375 L 114.105469 109.023438 C 114.105469 109.566406 114.464844 110.042969 114.988281 110.191406 L 125.425781 113.125 C 126.199219 113.339844 126.96875 112.757812 126.96875 111.953125 L 126.96875 101.292969 C 126.96875 100.746094 126.605469 100.269531 126.082031 100.121094 Z M 126.082031 100.121094 " clip-rule="nonzero"/></clipPath><linearGradient x1="114.296484" gradientTransform="matrix(0.000000000000000006, 0.097555, -0.0974332, 0.000000000000000006, 136.800911, 67.034371)" y1="-47.633868" x2="358.610901" gradientUnits="userSpaceOnUse" y2="547.607342" id="7685207ecf"><stop stop-opacity="1" stop-color="rgb(77.598572%, 30.999756%, 100%)" offset="0"/><stop stop-opacity="1" stop-color="rgb(77.598572%, 30.999756%, 100%)" offset="0.0625"/><stop stop-opacity="1" stop-color="rgb(77.540588%, 30.987549%, 100%)" offset="0.09375"/><stop stop-opacity="1" stop-color="rgb(77.328491%, 30.941772%, 100%)" offset="0.101563"/><stop stop-opacity="1" stop-color="rgb(77.018738%, 30.874634%, 100%)" offset="0.109375"/><stop stop-opacity="1" stop-color="rgb(76.708984%, 30.809021%, 100%)" offset="0.117188"/><stop stop-opacity="1" stop-color="rgb(76.399231%, 30.741882%, 100%)" offset="0.125"/><stop stop-opacity="1" stop-color="rgb(76.089478%, 30.674744%, 100%)" offset="0.132813"/><stop stop-opacity="1" stop-color="rgb(75.779724%, 30.609131%, 100%)" offset="0.140625"/><stop stop-opacity="1" stop-color="rgb(75.469971%, 30.541992%, 100%)" offset="0.148438"/><stop stop-opacity="1" stop-color="rgb(75.160217%, 30.476379%, 100%)" offset="0.15625"/><stop stop-opacity="1" stop-color="rgb(74.850464%, 30.409241%, 100%)" offset="0.164063"/><stop stop-opacity="1" stop-color="rgb(74.54071%, 30.343628%, 100%)" offset="0.171875"/><stop stop-opacity="1" stop-color="rgb(74.230957%, 30.276489%, 100%)" offset="0.179688"/><stop stop-opacity="1" stop-color="rgb(73.919678%, 30.210876%, 100%)" offset="0.1875"/><stop stop-opacity="1" stop-color="rgb(73.609924%, 30.143738%, 100%)" offset="0.195313"/><stop stop-opacity="1" stop-color="rgb(73.300171%, 30.078125%, 100%)" offset="0.203125"/><stop stop-opacity="1" stop-color="rgb(72.990417%, 30.010986%, 100%)" offset="0.210938"/><stop stop-opacity="1" stop-color="rgb(72.680664%, 29.945374%, 100%)" offset="0.21875"/><stop stop-opacity="1" stop-color="rgb(72.370911%, 29.878235%, 100%)" offset="0.226563"/><stop stop-opacity="1" stop-color="rgb(72.061157%, 29.812622%, 100%)" offset="0.234375"/><stop stop-opacity="1" stop-color="rgb(71.751404%, 29.745483%, 100%)" offset="0.242188"/><stop stop-opacity="1" stop-color="rgb(71.44165%, 29.679871%, 100%)" offset="0.25"/><stop stop-opacity="1" stop-color="rgb(71.131897%, 29.612732%, 100%)" offset="0.257813"/><stop stop-opacity="1" stop-color="rgb(70.822144%, 29.547119%, 100%)" offset="0.265625"/><stop stop-opacity="1" stop-color="rgb(70.51239%, 29.47998%, 100%)" offset="0.273438"/><stop stop-opacity="1" stop-color="rgb(70.201111%, 29.414368%, 100%)" offset="0.281113"/><stop stop-opacity="1" stop-color="rgb(70.046997%, 29.380798%, 100%)" offset="0.28125"/><stop stop-opacity="1" stop-color="rgb(69.891357%, 29.347229%, 100%)" offset="0.289062"/><stop stop-opacity="1" stop-color="rgb(69.581604%, 29.281616%, 100%)" offset="0.296875"/><stop stop-opacity="1" stop-color="rgb(69.271851%, 29.214478%, 100%)" offset="0.304688"/><stop stop-opacity="1" stop-color="rgb(68.962097%, 29.148865%, 100%)" offset="0.3125"/><stop stop-opacity="1" stop-color="rgb(68.652344%, 29.081726%, 100%)" offset="0.320313"/><stop stop-opacity="1" stop-color="rgb(68.34259%, 29.016113%, 100%)" offset="0.328125"/><stop stop-opacity="1" stop-color="rgb(68.032837%, 28.948975%, 100%)" offset="0.335938"/><stop stop-opacity="1" stop-color="rgb(67.723083%, 28.883362%, 100%)" offset="0.34375"/><stop stop-opacity="1" stop-color="rgb(67.41333%, 28.816223%, 100%)" offset="0.351563"/><stop stop-opacity="1" stop-color="rgb(67.103577%, 28.75061%, 100%)" offset="0.359375"/><stop stop-opacity="1" stop-color="rgb(66.793823%, 28.683472%, 100%)" offset="0.367188"/><stop stop-opacity="1" stop-color="rgb(66.48407%, 28.616333%, 100%)" offset="0.375"/><stop stop-opacity="1" stop-color="rgb(66.172791%, 28.55072%, 100%)" offset="0.382813"/><stop stop-opacity="1" stop-color="rgb(65.863037%, 28.483582%, 100%)" offset="0.390625"/><stop stop-opacity="1" stop-color="rgb(65.553284%, 28.417969%, 100%)" offset="0.398438"/><stop stop-opacity="1" stop-color="rgb(65.24353%, 28.35083%, 100%)" offset="0.40625"/><stop stop-opacity="1" stop-color="rgb(64.933777%, 28.285217%, 100%)" offset="0.414062"/><stop stop-opacity="1" stop-color="rgb(64.624023%, 28.218079%, 100%)" offset="0.421875"/><stop stop-opacity="1" stop-color="rgb(64.31427%, 28.152466%, 100%)" offset="0.429688"/><stop stop-opacity="1" stop-color="rgb(64.004517%, 28.085327%, 100%)" offset="0.4375"/><stop stop-opacity="1" stop-color="rgb(63.694763%, 28.019714%, 100%)" offset="0.445313"/><stop stop-opacity="1" stop-color="rgb(63.38501%, 27.952576%, 100%)" offset="0.453125"/><stop stop-opacity="1" stop-color="rgb(63.075256%, 27.886963%, 100%)" offset="0.460938"/><stop stop-opacity="1" stop-color="rgb(62.765503%, 27.819824%, 100%)" offset="0.46875"/><stop stop-opacity="1" stop-color="rgb(62.454224%, 27.754211%, 100%)" offset="0.476563"/><stop stop-opacity="1" stop-color="rgb(62.14447%, 27.687073%, 100%)" offset="0.484375"/><stop stop-opacity="1" stop-color="rgb(61.834717%, 27.62146%, 100%)" offset="0.492187"/><stop stop-opacity="1" stop-color="rgb(61.524963%, 27.554321%, 100%)" offset="0.5"/><stop stop-opacity="1" stop-color="rgb(61.21521%, 27.488708%, 100%)" offset="0.507812"/><stop stop-opacity="1" stop-color="rgb(60.905457%, 27.42157%, 100%)" offset="0.515625"/><stop stop-opacity="1" stop-color="rgb(60.595703%, 27.355957%, 100%)" offset="0.523437"/><stop stop-opacity="1" stop-color="rgb(60.28595%, 27.288818%, 100%)" offset="0.53125"/><stop stop-opacity="1" stop-color="rgb(59.976196%, 27.223206%, 100%)" offset="0.539062"/><stop stop-opacity="1" stop-color="rgb(59.666443%, 27.156067%, 100%)" offset="0.546875"/><stop stop-opacity="1" stop-color="rgb(59.356689%, 27.090454%, 100%)" offset="0.554687"/><stop stop-opacity="1" stop-color="rgb(59.046936%, 27.023315%, 100%)" offset="0.5625"/><stop stop-opacity="1" stop-color="rgb(58.737183%, 26.957703%, 100%)" offset="0.570312"/><stop stop-opacity="1" stop-color="rgb(58.425903%, 26.890564%, 100%)" offset="0.578125"/><stop stop-opacity="1" stop-color="rgb(58.11615%, 26.824951%, 100%)" offset="0.585937"/><stop stop-opacity="1" stop-color="rgb(57.806396%, 26.757812%, 100%)" offset="0.59375"/><stop stop-opacity="1" stop-color="rgb(57.496643%, 26.690674%, 100%)" offset="0.601562"/><stop stop-opacity="1" stop-color="rgb(57.18689%, 26.625061%, 100%)" offset="0.609375"/><stop stop-opacity="1" stop-color="rgb(56.877136%, 26.557922%, 100%)" offset="0.617188"/><stop stop-opacity="1" stop-color="rgb(56.567383%, 26.49231%, 100%)" offset="0.625"/><stop stop-opacity="1" stop-color="rgb(56.257629%, 26.425171%, 100%)" offset="0.632812"/><stop stop-opacity="1" stop-color="rgb(55.947876%, 26.359558%, 100%)" offset="0.640625"/><stop stop-opacity="1" stop-color="rgb(55.638123%, 26.292419%, 100%)" offset="0.648438"/><stop stop-opacity="1" stop-color="rgb(55.328369%, 26.226807%, 100%)" offset="0.65625"/><stop stop-opacity="1" stop-color="rgb(55.018616%, 26.159668%, 100%)" offset="0.664063"/><stop stop-opacity="1" stop-color="rgb(54.708862%, 26.094055%, 100%)" offset="0.671875"/><stop stop-opacity="1" stop-color="rgb(54.397583%, 26.026917%, 100%)" offset="0.679688"/><stop stop-opacity="1" stop-color="rgb(54.08783%, 25.961304%, 100%)" offset="0.6875"/><stop stop-opacity="1" stop-color="rgb(53.778076%, 25.894165%, 100%)" offset="0.695313"/><stop stop-opacity="1" stop-color="rgb(53.468323%, 25.828552%, 100%)" offset="0.703125"/><stop stop-opacity="1" stop-color="rgb(53.158569%, 25.761414%, 100%)" offset="0.710938"/><stop stop-opacity="1" stop-color="rgb(52.848816%, 25.695801%, 100%)" offset="0.71875"/><stop stop-opacity="1" stop-color="rgb(52.539062%, 25.628662%, 100%)" offset="0.718887"/><stop stop-opacity="1" stop-color="rgb(52.384949%, 25.596619%, 100%)" offset="0.726563"/><stop stop-opacity="1" stop-color="rgb(52.229309%, 25.563049%, 100%)" offset="0.734375"/><stop stop-opacity="1" stop-color="rgb(51.919556%, 25.495911%, 100%)" offset="0.742188"/><stop stop-opacity="1" stop-color="rgb(51.609802%, 25.430298%, 100%)" offset="0.75"/><stop stop-opacity="1" stop-color="rgb(51.300049%, 25.363159%, 100%)" offset="0.757812"/><stop stop-opacity="1" stop-color="rgb(50.990295%, 25.297546%, 100%)" offset="0.765625"/><stop stop-opacity="1" stop-color="rgb(50.679016%, 25.230408%, 100%)" offset="0.773437"/><stop stop-opacity="1" stop-color="rgb(50.369263%, 25.164795%, 100%)" offset="0.78125"/><stop stop-opacity="1" stop-color="rgb(50.059509%, 25.097656%, 100%)" offset="0.789062"/><stop stop-opacity="1" stop-color="rgb(49.749756%, 25.032043%, 100%)" offset="0.796875"/><stop stop-opacity="1" stop-color="rgb(49.440002%, 24.964905%, 100%)" offset="0.804688"/><stop stop-opacity="1" stop-color="rgb(49.130249%, 24.899292%, 100%)" offset="0.8125"/><stop stop-opacity="1" stop-color="rgb(48.820496%, 24.832153%, 100%)" offset="0.820312"/><stop stop-opacity="1" stop-color="rgb(48.510742%, 24.765015%, 100%)" offset="0.828125"/><stop stop-opacity="1" stop-color="rgb(48.277283%, 24.716187%, 100%)" offset="0.84375"/><stop stop-opacity="1" stop-color="rgb(48.199463%, 24.699402%, 100%)" offset="0.875"/><stop stop-opacity="1" stop-color="rgb(48.199463%, 24.699402%, 100%)" offset="1"/></linearGradient><clipPath id="a3d183dd1b"><path d="M 16.519531 47.605469 L 208.359375 47.605469 L 208.359375 51.511719 L 16.519531 51.511719 Z M 204.5 51.511719 L 208.359375 51.511719 L 208.359375 182.382812 L 204.5 182.382812 Z M 16.519531 51.511719 L 20.425781 51.511719 L 20.425781 182.382812 L 16.519531 182.382812 Z M 16.519531 182.382812 L 208.359375 182.382812 L 208.359375 186.242188 L 16.519531 186.242188 Z M 16.519531 182.382812 " clip-rule="nonzero"/></clipPath></defs><g clip-path="url(#da2366306b)"><path fill="#ffffff" d="M 0 0.0585938 L 224.878906 0.0585938 L 224.878906 232.4375 L 0 232.4375 Z M 0 0.0585938 " fill-opacity="1" fill-rule="nonzero"/><path fill="#ffffff" d="M 0 0.0585938 L 224.878906 0.0585938 L 224.878906 224.941406 L 0 224.941406 Z M 0 0.0585938 " fill-opacity="1" fill-rule="nonzero"/><path fill="#170b30" d="M 0 0.0585938 L 224.878906 0.0585938 L 224.878906 224.941406 L 0 224.941406 Z M 0 0.0585938 " fill-opacity="1" fill-rule="nonzero"/></g><g fill="#ffffff" fill-opacity="1"><g transform="translate(43.926004, 141.721667)"><g><path d="M 26.703125 -19.578125 C 26.921875 -19.578125 27.078125 -19.515625 27.171875 -19.390625 C 27.265625 -19.273438 27.285156 -19.109375 27.234375 -18.890625 L 21.828125 -0.5 C 21.722656 -0.164062 21.484375 0 21.109375 0 L 18.6875 0 C 18.300781 0 18.054688 -0.15625 17.953125 -0.46875 L 14.296875 -13.1875 C 14.285156 -13.351562 14.253906 -13.4375 14.203125 -13.4375 C 14.148438 -13.4375 14.097656 -13.347656 14.046875 -13.171875 L 10.375 -0.5 C 10.320312 -0.320312 10.238281 -0.191406 10.125 -0.109375 C 10.007812 -0.0351562 9.84375 0 9.625 0 L 7.15625 0 C 6.769531 0 6.519531 -0.15625 6.40625 -0.46875 L 1.0625 -18.875 L 1 -19.109375 C 1 -19.242188 1.050781 -19.351562 1.15625 -19.4375 C 1.257812 -19.53125 1.398438 -19.578125 1.578125 -19.578125 L 4.328125 -19.578125 C 4.523438 -19.578125 4.664062 -19.546875 4.75 -19.484375 C 4.832031 -19.421875 4.894531 -19.320312 4.9375 -19.1875 L 8.65625 -6.015625 C 8.707031 -5.828125 8.757812 -5.734375 8.8125 -5.734375 C 8.863281 -5.734375 8.914062 -5.8125 8.96875 -5.96875 L 12.6875 -19.1875 C 12.738281 -19.320312 12.804688 -19.421875 12.890625 -19.484375 C 12.984375 -19.546875 13.128906 -19.578125 13.328125 -19.578125 L 15.703125 -19.578125 C 15.898438 -19.578125 16.039062 -19.546875 16.125 -19.484375 C 16.207031 -19.421875 16.269531 -19.320312 16.3125 -19.1875 L 20.078125 -5.890625 C 20.128906 -5.742188 20.179688 -5.671875 20.234375 -5.671875 C 20.304688 -5.671875 20.351562 -5.734375 20.375 -5.859375 L 24.0625 -19.1875 C 24.113281 -19.445312 24.328125 -19.578125 24.703125 -19.578125 Z M 26.703125 -19.578125 "/></g></g></g><g fill="#ffffff" fill-opacity="1"><g transform="translate(72.180287, 141.721667)"><g><path d="M 4.515625 -5.90625 C 4.515625 -5.1875 4.679688 -4.539062 5.015625 -3.96875 C 5.347656 -3.394531 5.804688 -2.945312 6.390625 -2.625 C 6.984375 -2.300781 7.632812 -2.140625 8.34375 -2.140625 C 9.0625 -2.140625 9.710938 -2.289062 10.296875 -2.59375 C 10.890625 -2.90625 11.453125 -3.382812 11.984375 -4.03125 C 12.066406 -4.125 12.132812 -4.171875 12.1875 -4.171875 C 12.238281 -4.171875 12.320312 -4.144531 12.4375 -4.09375 L 14.046875 -3.375 C 14.160156 -3.320312 14.21875 -3.242188 14.21875 -3.140625 C 14.21875 -3.085938 14.1875 -3.007812 14.125 -2.90625 C 13.332031 -1.757812 12.457031 -0.941406 11.5 -0.453125 C 10.539062 0.0234375 9.351562 0.265625 7.9375 0.265625 C 6.601562 0.265625 5.40625 -0.03125 4.34375 -0.625 C 3.28125 -1.226562 2.445312 -2.066406 1.84375 -3.140625 C 1.25 -4.210938 0.953125 -5.4375 0.953125 -6.8125 C 0.953125 -8.289062 1.257812 -9.59375 1.875 -10.71875 C 2.488281 -11.84375 3.320312 -12.710938 4.375 -13.328125 C 5.4375 -13.941406 6.609375 -14.25 7.890625 -14.25 C 9.210938 -14.25 10.378906 -13.957031 11.390625 -13.375 C 12.398438 -12.800781 13.179688 -11.960938 13.734375 -10.859375 C 14.285156 -9.753906 14.5625 -8.445312 14.5625 -6.9375 L 14.5625 -6.828125 C 14.5625 -6.660156 14.535156 -6.539062 14.484375 -6.46875 C 14.429688 -6.394531 14.316406 -6.347656 14.140625 -6.328125 L 4.796875 -6.328125 C 4.609375 -6.328125 4.515625 -6.1875 4.515625 -5.90625 Z M 10.765625 -8.28125 C 10.941406 -8.28125 11.0625 -8.300781 11.125 -8.34375 C 11.1875 -8.394531 11.21875 -8.5 11.21875 -8.65625 C 11.21875 -9.21875 11.09375 -9.757812 10.84375 -10.28125 C 10.601562 -10.8125 10.238281 -11.242188 9.75 -11.578125 C 9.269531 -11.921875 8.691406 -12.09375 8.015625 -12.09375 C 6.984375 -12.09375 6.144531 -11.722656 5.5 -10.984375 C 4.863281 -10.253906 4.550781 -9.351562 4.5625 -8.28125 Z M 10.765625 -8.28125 "/></g></g></g><g fill="#ffffff" fill-opacity="1"><g transform="translate(87.58692, 141.721667)"><g><path d="M 2.1875 0 C 2 0 1.863281 -0.0351562 1.78125 -0.109375 C 1.695312 -0.191406 1.65625 -0.332031 1.65625 -0.53125 L 1.65625 -19.140625 C 1.65625 -19.429688 1.789062 -19.578125 2.0625 -19.578125 L 4.71875 -19.578125 C 4.96875 -19.578125 5.09375 -19.429688 5.09375 -19.140625 L 5.09375 -12.875 C 5.09375 -12.664062 5.144531 -12.5625 5.25 -12.5625 C 5.300781 -12.5625 5.390625 -12.601562 5.515625 -12.6875 C 6.640625 -13.726562 7.929688 -14.25 9.390625 -14.25 C 11.191406 -14.25 12.570312 -13.59375 13.53125 -12.28125 C 14.488281 -10.96875 14.96875 -9.234375 14.96875 -7.078125 C 14.96875 -4.804688 14.4375 -3.015625 13.375 -1.703125 C 12.320312 -0.390625 10.847656 0.265625 8.953125 0.265625 C 7.992188 0.265625 7.160156 0.0625 6.453125 -0.34375 C 5.753906 -0.757812 5.175781 -1.257812 4.71875 -1.84375 C 4.664062 -1.9375 4.613281 -1.984375 4.5625 -1.984375 C 4.507812 -1.984375 4.46875 -1.910156 4.4375 -1.765625 L 4.171875 -0.5 C 4.128906 -0.320312 4.066406 -0.191406 3.984375 -0.109375 C 3.898438 -0.0351562 3.773438 0 3.609375 0 Z M 5.09375 -4.796875 C 5.09375 -3.972656 5.390625 -3.285156 5.984375 -2.734375 C 6.585938 -2.179688 7.296875 -1.90625 8.109375 -1.90625 C 9.140625 -1.90625 9.953125 -2.320312 10.546875 -3.15625 C 11.148438 -3.988281 11.453125 -5.273438 11.453125 -7.015625 C 11.453125 -10.335938 10.378906 -12 8.234375 -12 C 7.617188 -12 7.039062 -11.851562 6.5 -11.5625 C 5.96875 -11.28125 5.5 -10.890625 5.09375 -10.390625 Z M 5.09375 -4.796875 "/></g></g></g><g fill="#ffffff" fill-opacity="1"><g transform="translate(103.57394, 141.721667)"><g><path d="M 17.5 -13.625 C 17.5 -11.738281 16.851562 -10.285156 15.5625 -9.265625 C 14.269531 -8.242188 12.546875 -7.734375 10.390625 -7.734375 L 6.25 -7.734375 C 6.070312 -7.734375 5.984375 -7.644531 5.984375 -7.46875 L 5.984375 -0.53125 C 5.984375 -0.175781 5.789062 0 5.40625 0 L 2.5625 0 C 2.238281 0 2.078125 -0.15625 2.078125 -0.46875 L 2.078125 -19.140625 C 2.078125 -19.429688 2.210938 -19.578125 2.484375 -19.578125 L 9.953125 -19.578125 C 12.179688 -19.578125 13.992188 -19.078125 15.390625 -18.078125 C 16.796875 -17.078125 17.5 -15.59375 17.5 -13.625 Z M 13.484375 -13.703125 C 13.484375 -14.734375 13.148438 -15.5 12.484375 -16 C 11.816406 -16.507812 10.898438 -16.765625 9.734375 -16.765625 L 6.4375 -16.765625 C 6.132812 -16.765625 5.984375 -16.617188 5.984375 -16.328125 L 5.984375 -11 C 5.984375 -10.84375 6.007812 -10.726562 6.0625 -10.65625 C 6.125 -10.59375 6.210938 -10.5625 6.328125 -10.5625 L 9.890625 -10.5625 C 11.003906 -10.5625 11.878906 -10.828125 12.515625 -11.359375 C 13.160156 -11.898438 13.484375 -12.679688 13.484375 -13.703125 Z M 13.484375 -13.703125 "/></g></g></g><g fill="#ffffff" fill-opacity="1"><g transform="translate(122.199079, 141.721667)"><g><path d="M 7.28125 -8.390625 C 8.394531 -9.378906 9.234375 -10.1875 9.796875 -10.8125 C 10.367188 -11.4375 10.769531 -12 11 -12.5 C 11.226562 -13 11.34375 -13.53125 11.34375 -14.09375 C 11.34375 -14.96875 11.023438 -15.664062 10.390625 -16.1875 C 9.765625 -16.707031 8.992188 -16.96875 8.078125 -16.96875 C 6.453125 -16.96875 5.097656 -16.0625 4.015625 -14.25 C 3.960938 -14.125 3.851562 -14.0625 3.6875 -14.0625 C 3.582031 -14.0625 3.472656 -14.097656 3.359375 -14.171875 L 1.40625 -15.203125 C 1.226562 -15.304688 1.140625 -15.4375 1.140625 -15.59375 C 1.140625 -15.695312 1.179688 -15.820312 1.265625 -15.96875 C 2.941406 -18.550781 5.300781 -19.84375 8.34375 -19.84375 C 9.65625 -19.84375 10.828125 -19.613281 11.859375 -19.15625 C 12.890625 -18.695312 13.691406 -18.03125 14.265625 -17.15625 C 14.847656 -16.289062 15.140625 -15.257812 15.140625 -14.0625 C 15.140625 -12.976562 14.84375 -11.960938 14.25 -11.015625 C 13.65625 -10.078125 12.632812 -9 11.1875 -7.78125 L 6.15625 -3.53125 C 6.0625 -3.445312 6.015625 -3.390625 6.015625 -3.359375 C 6.015625 -3.265625 6.113281 -3.21875 6.3125 -3.21875 L 14.890625 -3.21875 C 15.046875 -3.21875 15.15625 -3.191406 15.21875 -3.140625 C 15.289062 -3.085938 15.328125 -2.988281 15.328125 -2.84375 L 15.328125 -0.421875 C 15.328125 -0.140625 15.171875 0 14.859375 0 L 1.640625 0 C 1.421875 0 1.269531 -0.0351562 1.1875 -0.109375 C 1.113281 -0.179688 1.078125 -0.3125 1.078125 -0.5 L 1.078125 -2.21875 C 1.078125 -2.375 1.140625 -2.546875 1.265625 -2.734375 C 1.390625 -2.921875 1.679688 -3.195312 2.140625 -3.5625 Z M 7.28125 -8.390625 "/></g></g></g><g fill="#ffffff" fill-opacity="1"><g transform="translate(138.766485, 141.721667)"><g><path d="M 2.59375 0 C 2.425781 0 2.296875 -0.046875 2.203125 -0.140625 C 2.117188 -0.242188 2.078125 -0.375 2.078125 -0.53125 L 2.078125 -19.140625 C 2.078125 -19.296875 2.109375 -19.40625 2.171875 -19.46875 C 2.234375 -19.539062 2.34375 -19.578125 2.5 -19.578125 L 6.96875 -19.578125 C 7.144531 -19.578125 7.269531 -19.550781 7.34375 -19.5 C 7.425781 -19.445312 7.484375 -19.351562 7.515625 -19.21875 L 12.171875 -6.75 C 12.222656 -6.613281 12.28125 -6.546875 12.34375 -6.546875 C 12.414062 -6.546875 12.476562 -6.625 12.53125 -6.78125 L 17.046875 -19.078125 C 17.140625 -19.410156 17.316406 -19.578125 17.578125 -19.578125 L 22.1875 -19.578125 C 22.4375 -19.578125 22.5625 -19.4375 22.5625 -19.15625 L 22.5625 -0.546875 C 22.5625 -0.359375 22.515625 -0.21875 22.421875 -0.125 C 22.335938 -0.0390625 22.191406 0 21.984375 0 L 19.15625 0 C 18.976562 0 18.847656 -0.0351562 18.765625 -0.109375 C 18.691406 -0.179688 18.65625 -0.300781 18.65625 -0.46875 L 18.65625 -14.28125 C 18.65625 -14.382812 18.628906 -14.4375 18.578125 -14.4375 C 18.554688 -14.4375 18.515625 -14.375 18.453125 -14.25 L 13.4375 -0.390625 C 13.363281 -0.128906 13.1875 0 12.90625 0 L 11.03125 0 C 10.75 0 10.554688 -0.128906 10.453125 -0.390625 L 5.484375 -14.09375 C 5.472656 -14.21875 5.429688 -14.28125 5.359375 -14.28125 C 5.304688 -14.28125 5.28125 -14.207031 5.28125 -14.0625 L 5.28125 -0.421875 C 5.28125 -0.265625 5.25 -0.15625 5.1875 -0.09375 C 5.125 -0.03125 5.003906 0 4.828125 0 Z M 2.59375 0 "/></g></g></g><g fill="#ffffff" fill-opacity="1"><g transform="translate(163.40654, 141.721667)"><g><path d="M 13.109375 -15.3125 C 12.640625 -15.851562 12.085938 -16.273438 11.453125 -16.578125 C 10.816406 -16.890625 10.007812 -17.046875 9.03125 -17.046875 C 7.863281 -17.046875 6.96875 -16.820312 6.34375 -16.375 C 5.71875 -15.925781 5.40625 -15.316406 5.40625 -14.546875 C 5.40625 -13.472656 6.191406 -12.6875 7.765625 -12.1875 L 11.828125 -10.984375 C 14.867188 -10.066406 16.390625 -8.257812 16.390625 -5.5625 C 16.390625 -4.382812 16.082031 -3.351562 15.46875 -2.46875 C 14.851562 -1.59375 13.976562 -0.914062 12.84375 -0.4375 C 11.707031 0.03125 10.363281 0.265625 8.8125 0.265625 C 7.09375 0.265625 5.550781 -0.0234375 4.1875 -0.609375 C 2.832031 -1.203125 1.804688 -2.035156 1.109375 -3.109375 C 1.035156 -3.285156 1 -3.394531 1 -3.4375 C 1 -3.570312 1.085938 -3.703125 1.265625 -3.828125 L 2.921875 -4.984375 C 3.117188 -5.085938 3.269531 -5.140625 3.375 -5.140625 C 3.519531 -5.140625 3.632812 -5.082031 3.71875 -4.96875 C 4.40625 -4.0625 5.09375 -3.421875 5.78125 -3.046875 C 6.476562 -2.679688 7.410156 -2.5 8.578125 -2.5 C 9.847656 -2.5 10.84375 -2.710938 11.5625 -3.140625 C 12.28125 -3.566406 12.640625 -4.207031 12.640625 -5.0625 C 12.640625 -5.625 12.457031 -6.097656 12.09375 -6.484375 C 11.738281 -6.878906 11.101562 -7.222656 10.1875 -7.515625 L 6.203125 -8.734375 C 4.742188 -9.171875 3.625 -9.867188 2.84375 -10.828125 C 2.070312 -11.785156 1.6875 -12.863281 1.6875 -14.0625 C 1.6875 -15.1875 1.984375 -16.1875 2.578125 -17.0625 C 3.179688 -17.9375 4.03125 -18.617188 5.125 -19.109375 C 6.226562 -19.597656 7.503906 -19.84375 8.953125 -19.84375 C 10.335938 -19.84375 11.613281 -19.597656 12.78125 -19.109375 C 13.957031 -18.628906 14.890625 -17.96875 15.578125 -17.125 C 15.679688 -16.988281 15.734375 -16.875 15.734375 -16.78125 C 15.734375 -16.695312 15.679688 -16.609375 15.578125 -16.515625 L 13.703125 -15.125 C 13.628906 -15.070312 13.554688 -15.046875 13.484375 -15.046875 C 13.398438 -15.046875 13.273438 -15.132812 13.109375 -15.3125 Z M 13.109375 -15.3125 "/></g></g></g><g fill="#c64fff" fill-opacity="1"><g transform="translate(37.650447, 153.810223)"><g><path d="M 6.0625 -4.203125 C 6.082031 -4.253906 6.113281 -4.289062 6.15625 -4.3125 C 6.195312 -4.34375 6.238281 -4.359375 6.28125 -4.359375 C 6.351562 -4.359375 6.410156 -4.335938 6.453125 -4.296875 C 6.503906 -4.265625 6.53125 -4.21875 6.53125 -4.15625 C 6.53125 -4.125 6.523438 -4.085938 6.515625 -4.046875 L 5.125 -0.140625 C 5.101562 -0.0859375 5.066406 -0.046875 5.015625 -0.015625 C 4.960938 0.015625 4.90625 0.03125 4.84375 0.03125 C 4.789062 0.03125 4.738281 0.015625 4.6875 -0.015625 C 4.644531 -0.046875 4.613281 -0.0859375 4.59375 -0.140625 L 3.390625 -3.546875 L 2.171875 -0.140625 C 2.148438 -0.0859375 2.113281 -0.046875 2.0625 -0.015625 C 2.007812 0.015625 1.957031 0.03125 1.90625 0.03125 C 1.84375 0.03125 1.785156 0.015625 1.734375 -0.015625 C 1.691406 -0.046875 1.660156 -0.0859375 1.640625 -0.140625 L 0.25 -4.046875 C 0.238281 -4.085938 0.234375 -4.117188 0.234375 -4.140625 C 0.234375 -4.210938 0.253906 -4.265625 0.296875 -4.296875 C 0.347656 -4.335938 0.410156 -4.359375 0.484375 -4.359375 C 0.523438 -4.359375 0.566406 -4.34375 0.609375 -4.3125 C 0.660156 -4.289062 0.691406 -4.253906 0.703125 -4.203125 L 1.921875 -0.71875 L 3.140625 -4.171875 C 3.160156 -4.234375 3.191406 -4.28125 3.234375 -4.3125 C 3.285156 -4.34375 3.335938 -4.359375 3.390625 -4.359375 C 3.441406 -4.359375 3.488281 -4.335938 3.53125 -4.296875 C 3.582031 -4.265625 3.617188 -4.21875 3.640625 -4.15625 L 4.84375 -0.703125 Z M 6.0625 -4.203125 "/></g></g></g><g fill="#c64fff" fill-opacity="1"><g transform="translate(44.412775, 153.810223)"><g><path d="M 2.78125 -0.6875 C 2.820312 -0.6875 2.859375 -0.664062 2.890625 -0.625 C 2.921875 -0.59375 2.9375 -0.550781 2.9375 -0.5 C 2.9375 -0.394531 2.863281 -0.300781 2.71875 -0.21875 C 2.570312 -0.132812 2.414062 -0.0664062 2.25 -0.015625 C 2.09375 0.0234375 1.9375 0.046875 1.78125 0.046875 C 1.320312 0.046875 0.957031 -0.0859375 0.6875 -0.359375 C 0.414062 -0.640625 0.28125 -1.019531 0.28125 -1.5 C 0.28125 -1.8125 0.335938 -2.082031 0.453125 -2.3125 C 0.578125 -2.550781 0.742188 -2.734375 0.953125 -2.859375 C 1.171875 -2.992188 1.414062 -3.0625 1.6875 -3.0625 C 2.082031 -3.0625 2.394531 -2.929688 2.625 -2.671875 C 2.851562 -2.421875 2.96875 -2.082031 2.96875 -1.65625 C 2.96875 -1.570312 2.953125 -1.507812 2.921875 -1.46875 C 2.890625 -1.4375 2.832031 -1.421875 2.75 -1.421875 L 0.78125 -1.421875 C 0.8125 -0.710938 1.144531 -0.359375 1.78125 -0.359375 C 1.9375 -0.359375 2.070312 -0.378906 2.1875 -0.421875 C 2.300781 -0.460938 2.425781 -0.523438 2.5625 -0.609375 C 2.664062 -0.660156 2.738281 -0.6875 2.78125 -0.6875 Z M 1.703125 -2.671875 C 1.441406 -2.671875 1.226562 -2.585938 1.0625 -2.421875 C 0.90625 -2.265625 0.816406 -2.035156 0.796875 -1.734375 L 2.53125 -1.734375 C 2.519531 -2.035156 2.441406 -2.265625 2.296875 -2.421875 C 2.160156 -2.585938 1.960938 -2.671875 1.703125 -2.671875 Z M 1.703125 -2.671875 "/></g></g></g><g fill="#c64fff" fill-opacity="1"><g transform="translate(47.649605, 153.810223)"><g><path d="M 1.96875 -3.0625 C 2.226562 -3.0625 2.457031 -3 2.65625 -2.875 C 2.851562 -2.75 3.007812 -2.566406 3.125 -2.328125 C 3.238281 -2.097656 3.296875 -1.828125 3.296875 -1.515625 C 3.296875 -1.210938 3.238281 -0.941406 3.125 -0.703125 C 3.007812 -0.460938 2.851562 -0.273438 2.65625 -0.140625 C 2.457031 -0.015625 2.226562 0.046875 1.96875 0.046875 C 1.726562 0.046875 1.519531 -0.00390625 1.34375 -0.109375 C 1.175781 -0.210938 1.046875 -0.359375 0.953125 -0.546875 L 0.953125 -0.21875 C 0.953125 -0.144531 0.929688 -0.0820312 0.890625 -0.03125 C 0.847656 0.0078125 0.789062 0.03125 0.71875 0.03125 C 0.632812 0.03125 0.566406 0.0078125 0.515625 -0.03125 C 0.472656 -0.0820312 0.453125 -0.144531 0.453125 -0.21875 L 0.453125 -4.125 C 0.453125 -4.1875 0.472656 -4.238281 0.515625 -4.28125 C 0.566406 -4.332031 0.632812 -4.359375 0.71875 -4.359375 C 0.789062 -4.359375 0.847656 -4.335938 0.890625 -4.296875 C 0.929688 -4.253906 0.953125 -4.195312 0.953125 -4.125 L 0.953125 -2.46875 C 1.046875 -2.65625 1.175781 -2.800781 1.34375 -2.90625 C 1.519531 -3.007812 1.726562 -3.0625 1.96875 -3.0625 Z M 1.859375 -0.375 C 2.148438 -0.375 2.375 -0.472656 2.53125 -0.671875 C 2.695312 -0.867188 2.78125 -1.148438 2.78125 -1.515625 C 2.78125 -1.878906 2.695312 -2.15625 2.53125 -2.34375 C 2.375 -2.539062 2.148438 -2.640625 1.859375 -2.640625 C 1.578125 -2.640625 1.351562 -2.539062 1.1875 -2.34375 C 1.03125 -2.15625 0.953125 -1.878906 0.953125 -1.515625 C 0.953125 -1.148438 1.03125 -0.867188 1.1875 -0.671875 C 1.351562 -0.472656 1.578125 -0.375 1.859375 -0.375 Z M 1.859375 -0.375 "/></g></g></g><g fill="#c64fff" fill-opacity="1"><g transform="translate(51.224241, 153.810223)"><g/></g></g><g fill="#c64fff" fill-opacity="1"><g transform="translate(52.808874, 153.810223)"><g><path d="M 0.78125 0.03125 C 0.707031 0.03125 0.644531 0.0078125 0.59375 -0.03125 C 0.550781 -0.0820312 0.53125 -0.148438 0.53125 -0.234375 L 0.53125 -4.078125 C 0.53125 -4.148438 0.550781 -4.207031 0.59375 -4.25 C 0.644531 -4.300781 0.710938 -4.328125 0.796875 -4.328125 L 2.25 -4.328125 C 2.695312 -4.328125 3.046875 -4.21875 3.296875 -4 C 3.554688 -3.78125 3.6875 -3.46875 3.6875 -3.0625 C 3.6875 -2.65625 3.554688 -2.335938 3.296875 -2.109375 C 3.046875 -1.890625 2.695312 -1.78125 2.25 -1.78125 L 1.03125 -1.78125 L 1.03125 -0.234375 C 1.03125 -0.148438 1.007812 -0.0820312 0.96875 -0.03125 C 0.925781 0.0078125 0.863281 0.03125 0.78125 0.03125 Z M 2.203125 -2.1875 C 2.859375 -2.1875 3.1875 -2.476562 3.1875 -3.0625 C 3.1875 -3.625 2.859375 -3.90625 2.203125 -3.90625 L 1.03125 -3.90625 L 1.03125 -2.1875 Z M 2.203125 -2.1875 "/></g></g></g><g fill="#c64fff" fill-opacity="1"><g transform="translate(56.770455, 153.810223)"><g><path d="M 0.71875 0.03125 C 0.644531 0.03125 0.582031 0.0078125 0.53125 -0.03125 C 0.476562 -0.0703125 0.453125 -0.132812 0.453125 -0.21875 L 0.453125 -4.109375 C 0.453125 -4.191406 0.476562 -4.253906 0.53125 -4.296875 C 0.582031 -4.335938 0.644531 -4.359375 0.71875 -4.359375 C 0.78125 -4.359375 0.832031 -4.335938 0.875 -4.296875 C 0.925781 -4.253906 0.953125 -4.191406 0.953125 -4.109375 L 0.953125 -0.21875 C 0.953125 -0.132812 0.925781 -0.0703125 0.875 -0.03125 C 0.832031 0.0078125 0.78125 0.03125 0.71875 0.03125 Z M 0.71875 0.03125 "/></g></g></g><g fill="#c64fff" fill-opacity="1"><g transform="translate(58.195397, 153.810223)"><g><path d="M 1.6875 -3.0625 C 2.4375 -3.0625 2.8125 -2.671875 2.8125 -1.890625 L 2.8125 -0.21875 C 2.8125 -0.144531 2.785156 -0.0820312 2.734375 -0.03125 C 2.691406 0.0078125 2.632812 0.03125 2.5625 0.03125 C 2.488281 0.03125 2.429688 0.0078125 2.390625 -0.03125 C 2.347656 -0.0820312 2.328125 -0.144531 2.328125 -0.21875 L 2.328125 -0.515625 C 2.242188 -0.335938 2.117188 -0.195312 1.953125 -0.09375 C 1.796875 0 1.613281 0.046875 1.40625 0.046875 C 1.21875 0.046875 1.039062 0.0078125 0.875 -0.0625 C 0.71875 -0.144531 0.59375 -0.253906 0.5 -0.390625 C 0.40625 -0.535156 0.359375 -0.691406 0.359375 -0.859375 C 0.359375 -1.085938 0.414062 -1.265625 0.53125 -1.390625 C 0.644531 -1.515625 0.832031 -1.601562 1.09375 -1.65625 C 1.351562 -1.707031 1.71875 -1.734375 2.1875 -1.734375 L 2.328125 -1.734375 L 2.328125 -1.9375 C 2.328125 -2.1875 2.273438 -2.367188 2.171875 -2.484375 C 2.066406 -2.597656 1.90625 -2.65625 1.6875 -2.65625 C 1.40625 -2.65625 1.117188 -2.578125 0.828125 -2.421875 C 0.722656 -2.359375 0.648438 -2.328125 0.609375 -2.328125 C 0.554688 -2.328125 0.515625 -2.34375 0.484375 -2.375 C 0.453125 -2.414062 0.4375 -2.460938 0.4375 -2.515625 C 0.4375 -2.578125 0.453125 -2.628906 0.484375 -2.671875 C 0.515625 -2.710938 0.570312 -2.753906 0.65625 -2.796875 C 0.789062 -2.878906 0.945312 -2.941406 1.125 -2.984375 C 1.3125 -3.035156 1.5 -3.0625 1.6875 -3.0625 Z M 1.484375 -0.34375 C 1.722656 -0.34375 1.921875 -0.425781 2.078125 -0.59375 C 2.242188 -0.757812 2.328125 -0.972656 2.328125 -1.234375 L 2.328125 -1.421875 L 2.203125 -1.421875 C 1.847656 -1.421875 1.578125 -1.40625 1.390625 -1.375 C 1.203125 -1.34375 1.066406 -1.289062 0.984375 -1.21875 C 0.898438 -1.144531 0.859375 -1.039062 0.859375 -0.90625 C 0.859375 -0.738281 0.914062 -0.601562 1.03125 -0.5 C 1.15625 -0.394531 1.304688 -0.34375 1.484375 -0.34375 Z M 1.484375 -0.34375 "/></g></g></g><g fill="#c64fff" fill-opacity="1"><g transform="translate(61.450646, 153.810223)"><g><path d="M 1.84375 -0.359375 C 1.988281 -0.347656 2.0625 -0.285156 2.0625 -0.171875 C 2.0625 -0.0976562 2.035156 -0.0390625 1.984375 0 C 1.929688 0.03125 1.851562 0.0390625 1.75 0.03125 L 1.578125 0.015625 C 1.253906 -0.00390625 1.015625 -0.0976562 0.859375 -0.265625 C 0.703125 -0.441406 0.625 -0.707031 0.625 -1.0625 L 0.625 -2.59375 L 0.21875 -2.59375 C 0.144531 -2.59375 0.0859375 -2.609375 0.046875 -2.640625 C 0.015625 -2.679688 0 -2.726562 0 -2.78125 C 0 -2.84375 0.015625 -2.890625 0.046875 -2.921875 C 0.0859375 -2.960938 0.144531 -2.984375 0.21875 -2.984375 L 0.625 -2.984375 L 0.625 -3.6875 C 0.625 -3.757812 0.644531 -3.816406 0.6875 -3.859375 C 0.738281 -3.910156 0.800781 -3.9375 0.875 -3.9375 C 0.945312 -3.9375 1.003906 -3.910156 1.046875 -3.859375 C 1.097656 -3.816406 1.125 -3.757812 1.125 -3.6875 L 1.125 -2.984375 L 1.8125 -2.984375 C 1.875 -2.984375 1.921875 -2.960938 1.953125 -2.921875 C 1.992188 -2.890625 2.015625 -2.84375 2.015625 -2.78125 C 2.015625 -2.726562 1.992188 -2.679688 1.953125 -2.640625 C 1.921875 -2.609375 1.875 -2.59375 1.8125 -2.59375 L 1.125 -2.59375 L 1.125 -1.03125 C 1.125 -0.800781 1.171875 -0.632812 1.265625 -0.53125 C 1.359375 -0.4375 1.492188 -0.382812 1.671875 -0.375 Z M 1.84375 -0.359375 "/></g></g></g><g fill="#c64fff" fill-opacity="1"><g transform="translate(63.538919, 153.810223)"><g><path d="M 1.78125 -3.9375 C 1.5625 -3.914062 1.394531 -3.84375 1.28125 -3.71875 C 1.175781 -3.601562 1.125 -3.425781 1.125 -3.1875 L 1.125 -2.984375 L 1.8125 -2.984375 C 1.875 -2.984375 1.921875 -2.960938 1.953125 -2.921875 C 1.992188 -2.890625 2.015625 -2.84375 2.015625 -2.78125 C 2.015625 -2.726562 1.992188 -2.679688 1.953125 -2.640625 C 1.921875 -2.609375 1.875 -2.59375 1.8125 -2.59375 L 1.125 -2.59375 L 1.125 -0.21875 C 1.125 -0.132812 1.097656 -0.0703125 1.046875 -0.03125 C 1.003906 0.0078125 0.945312 0.03125 0.875 0.03125 C 0.800781 0.03125 0.738281 0.0078125 0.6875 -0.03125 C 0.644531 -0.0703125 0.625 -0.132812 0.625 -0.21875 L 0.625 -2.59375 L 0.21875 -2.59375 C 0.144531 -2.59375 0.0859375 -2.609375 0.046875 -2.640625 C 0.015625 -2.679688 0 -2.726562 0 -2.78125 C 0 -2.84375 0.015625 -2.890625 0.046875 -2.921875 C 0.0859375 -2.960938 0.144531 -2.984375 0.21875 -2.984375 L 0.625 -2.984375 L 0.625 -3.09375 C 0.625 -3.46875 0.710938 -3.757812 0.890625 -3.96875 C 1.078125 -4.175781 1.34375 -4.296875 1.6875 -4.328125 L 1.859375 -4.328125 C 1.960938 -4.335938 2.035156 -4.328125 2.078125 -4.296875 C 2.128906 -4.273438 2.15625 -4.226562 2.15625 -4.15625 C 2.15625 -4.03125 2.082031 -3.960938 1.9375 -3.953125 Z M 1.78125 -3.9375 "/></g></g></g><g fill="#c64fff" fill-opacity="1"><g transform="translate(65.553492, 153.810223)"><g><path d="M 1.703125 0.046875 C 1.421875 0.046875 1.171875 -0.015625 0.953125 -0.140625 C 0.734375 -0.273438 0.566406 -0.457031 0.453125 -0.6875 C 0.335938 -0.925781 0.28125 -1.203125 0.28125 -1.515625 C 0.28125 -1.828125 0.335938 -2.097656 0.453125 -2.328125 C 0.566406 -2.566406 0.734375 -2.75 0.953125 -2.875 C 1.171875 -3 1.421875 -3.0625 1.703125 -3.0625 C 1.984375 -3.0625 2.234375 -3 2.453125 -2.875 C 2.671875 -2.75 2.835938 -2.566406 2.953125 -2.328125 C 3.066406 -2.097656 3.125 -1.828125 3.125 -1.515625 C 3.125 -1.203125 3.066406 -0.925781 2.953125 -0.6875 C 2.835938 -0.457031 2.671875 -0.273438 2.453125 -0.140625 C 2.234375 -0.015625 1.984375 0.046875 1.703125 0.046875 Z M 1.703125 -0.375 C 1.992188 -0.375 2.21875 -0.46875 2.375 -0.65625 C 2.53125 -0.851562 2.609375 -1.140625 2.609375 -1.515625 C 2.609375 -1.878906 2.53125 -2.160156 2.375 -2.359375 C 2.21875 -2.554688 1.992188 -2.65625 1.703125 -2.65625 C 1.410156 -2.65625 1.179688 -2.554688 1.015625 -2.359375 C 0.859375 -2.160156 0.78125 -1.878906 0.78125 -1.515625 C 0.78125 -1.140625 0.859375 -0.851562 1.015625 -0.65625 C 1.179688 -0.46875 1.410156 -0.375 1.703125 -0.375 Z M 1.703125 -0.375 "/></g></g></g><g fill="#c64fff" fill-opacity="1"><g transform="translate(68.962296, 153.810223)"><g><path d="M 1.9375 -3.046875 C 2.113281 -3.066406 2.203125 -3 2.203125 -2.84375 C 2.203125 -2.78125 2.179688 -2.726562 2.140625 -2.6875 C 2.109375 -2.644531 2.046875 -2.617188 1.953125 -2.609375 L 1.765625 -2.59375 C 1.492188 -2.570312 1.289062 -2.472656 1.15625 -2.296875 C 1.019531 -2.128906 0.953125 -1.929688 0.953125 -1.703125 L 0.953125 -0.21875 C 0.953125 -0.132812 0.929688 -0.0703125 0.890625 -0.03125 C 0.847656 0.0078125 0.789062 0.03125 0.71875 0.03125 C 0.644531 0.03125 0.582031 0.0078125 0.53125 -0.03125 C 0.476562 -0.0703125 0.453125 -0.132812 0.453125 -0.21875 L 0.453125 -2.8125 C 0.453125 -2.882812 0.476562 -2.941406 0.53125 -2.984375 C 0.582031 -3.023438 0.644531 -3.046875 0.71875 -3.046875 C 0.78125 -3.046875 0.832031 -3.023438 0.875 -2.984375 C 0.925781 -2.941406 0.953125 -2.882812 0.953125 -2.8125 L 0.953125 -2.46875 C 1.035156 -2.644531 1.15625 -2.78125 1.3125 -2.875 C 1.46875 -2.96875 1.648438 -3.023438 1.859375 -3.046875 Z M 1.9375 -3.046875 "/></g></g></g><g fill="#c64fff" fill-opacity="1"><g transform="translate(71.130417, 153.810223)"><g><path d="M 3.78125 -3.0625 C 4.445312 -3.0625 4.78125 -2.664062 4.78125 -1.875 L 4.78125 -0.21875 C 4.78125 -0.132812 4.757812 -0.0703125 4.71875 -0.03125 C 4.675781 0.0078125 4.613281 0.03125 4.53125 0.03125 C 4.457031 0.03125 4.394531 0.0078125 4.34375 -0.03125 C 4.300781 -0.0703125 4.28125 -0.132812 4.28125 -0.21875 L 4.28125 -1.859375 C 4.28125 -2.140625 4.226562 -2.335938 4.125 -2.453125 C 4.03125 -2.578125 3.878906 -2.640625 3.671875 -2.640625 C 3.421875 -2.640625 3.222656 -2.554688 3.078125 -2.390625 C 2.941406 -2.222656 2.875 -2 2.875 -1.71875 L 2.875 -0.21875 C 2.875 -0.132812 2.847656 -0.0703125 2.796875 -0.03125 C 2.753906 0.0078125 2.695312 0.03125 2.625 0.03125 C 2.550781 0.03125 2.488281 0.0078125 2.4375 -0.03125 C 2.394531 -0.0703125 2.375 -0.132812 2.375 -0.21875 L 2.375 -1.859375 C 2.375 -2.140625 2.320312 -2.335938 2.21875 -2.453125 C 2.125 -2.578125 1.972656 -2.640625 1.765625 -2.640625 C 1.515625 -2.640625 1.316406 -2.554688 1.171875 -2.390625 C 1.023438 -2.222656 0.953125 -2 0.953125 -1.71875 L 0.953125 -0.21875 C 0.953125 -0.132812 0.929688 -0.0703125 0.890625 -0.03125 C 0.847656 0.0078125 0.789062 0.03125 0.71875 0.03125 C 0.644531 0.03125 0.582031 0.0078125 0.53125 -0.03125 C 0.476562 -0.0703125 0.453125 -0.132812 0.453125 -0.21875 L 0.453125 -2.8125 C 0.453125 -2.882812 0.476562 -2.941406 0.53125 -2.984375 C 0.582031 -3.023438 0.644531 -3.046875 0.71875 -3.046875 C 0.78125 -3.046875 0.832031 -3.023438 0.875 -2.984375 C 0.925781 -2.941406 0.953125 -2.882812 0.953125 -2.8125 L 0.953125 -2.515625 C 1.046875 -2.691406 1.171875 -2.828125 1.328125 -2.921875 C 1.484375 -3.015625 1.664062 -3.0625 1.875 -3.0625 C 2.34375 -3.0625 2.648438 -2.863281 2.796875 -2.46875 C 2.878906 -2.65625 3.007812 -2.800781 3.1875 -2.90625 C 3.363281 -3.007812 3.5625 -3.0625 3.78125 -3.0625 Z M 3.78125 -3.0625 "/></g></g></g><g fill="#c64fff" fill-opacity="1"><g transform="translate(76.363385, 153.810223)"><g/></g></g><g fill="#c64fff" fill-opacity="1"><g transform="translate(77.948018, 153.810223)"><g><path d="M 1.78125 -3.9375 C 1.5625 -3.914062 1.394531 -3.84375 1.28125 -3.71875 C 1.175781 -3.601562 1.125 -3.425781 1.125 -3.1875 L 1.125 -2.984375 L 1.8125 -2.984375 C 1.875 -2.984375 1.921875 -2.960938 1.953125 -2.921875 C 1.992188 -2.890625 2.015625 -2.84375 2.015625 -2.78125 C 2.015625 -2.726562 1.992188 -2.679688 1.953125 -2.640625 C 1.921875 -2.609375 1.875 -2.59375 1.8125 -2.59375 L 1.125 -2.59375 L 1.125 -0.21875 C 1.125 -0.132812 1.097656 -0.0703125 1.046875 -0.03125 C 1.003906 0.0078125 0.945312 0.03125 0.875 0.03125 C 0.800781 0.03125 0.738281 0.0078125 0.6875 -0.03125 C 0.644531 -0.0703125 0.625 -0.132812 0.625 -0.21875 L 0.625 -2.59375 L 0.21875 -2.59375 C 0.144531 -2.59375 0.0859375 -2.609375 0.046875 -2.640625 C 0.015625 -2.679688 0 -2.726562 0 -2.78125 C 0 -2.84375 0.015625 -2.890625 0.046875 -2.921875 C 0.0859375 -2.960938 0.144531 -2.984375 0.21875 -2.984375 L 0.625 -2.984375 L 0.625 -3.09375 C 0.625 -3.46875 0.710938 -3.757812 0.890625 -3.96875 C 1.078125 -4.175781 1.34375 -4.296875 1.6875 -4.328125 L 1.859375 -4.328125 C 1.960938 -4.335938 2.035156 -4.328125 2.078125 -4.296875 C 2.128906 -4.273438 2.15625 -4.226562 2.15625 -4.15625 C 2.15625 -4.03125 2.082031 -3.960938 1.9375 -3.953125 Z M 1.78125 -3.9375 "/></g></g></g><g fill="#c64fff" fill-opacity="1"><g transform="translate(79.962591, 153.810223)"><g><path d="M 1.703125 0.046875 C 1.421875 0.046875 1.171875 -0.015625 0.953125 -0.140625 C 0.734375 -0.273438 0.566406 -0.457031 0.453125 -0.6875 C 0.335938 -0.925781 0.28125 -1.203125 0.28125 -1.515625 C 0.28125 -1.828125 0.335938 -2.097656 0.453125 -2.328125 C 0.566406 -2.566406 0.734375 -2.75 0.953125 -2.875 C 1.171875 -3 1.421875 -3.0625 1.703125 -3.0625 C 1.984375 -3.0625 2.234375 -3 2.453125 -2.875 C 2.671875 -2.75 2.835938 -2.566406 2.953125 -2.328125 C 3.066406 -2.097656 3.125 -1.828125 3.125 -1.515625 C 3.125 -1.203125 3.066406 -0.925781 2.953125 -0.6875 C 2.835938 -0.457031 2.671875 -0.273438 2.453125 -0.140625 C 2.234375 -0.015625 1.984375 0.046875 1.703125 0.046875 Z M 1.703125 -0.375 C 1.992188 -0.375 2.21875 -0.46875 2.375 -0.65625 C 2.53125 -0.851562 2.609375 -1.140625 2.609375 -1.515625 C 2.609375 -1.878906 2.53125 -2.160156 2.375 -2.359375 C 2.21875 -2.554688 1.992188 -2.65625 1.703125 -2.65625 C 1.410156 -2.65625 1.179688 -2.554688 1.015625 -2.359375 C 0.859375 -2.160156 0.78125 -1.878906 0.78125 -1.515625 C 0.78125 -1.140625 0.859375 -0.851562 1.015625 -0.65625 C 1.179688 -0.46875 1.410156 -0.375 1.703125 -0.375 Z M 1.703125 -0.375 "/></g></g></g><g fill="#c64fff" fill-opacity="1"><g transform="translate(83.371395, 153.810223)"><g><path d="M 1.9375 -3.046875 C 2.113281 -3.066406 2.203125 -3 2.203125 -2.84375 C 2.203125 -2.78125 2.179688 -2.726562 2.140625 -2.6875 C 2.109375 -2.644531 2.046875 -2.617188 1.953125 -2.609375 L 1.765625 -2.59375 C 1.492188 -2.570312 1.289062 -2.472656 1.15625 -2.296875 C 1.019531 -2.128906 0.953125 -1.929688 0.953125 -1.703125 L 0.953125 -0.21875 C 0.953125 -0.132812 0.929688 -0.0703125 0.890625 -0.03125 C 0.847656 0.0078125 0.789062 0.03125 0.71875 0.03125 C 0.644531 0.03125 0.582031 0.0078125 0.53125 -0.03125 C 0.476562 -0.0703125 0.453125 -0.132812 0.453125 -0.21875 L 0.453125 -2.8125 C 0.453125 -2.882812 0.476562 -2.941406 0.53125 -2.984375 C 0.582031 -3.023438 0.644531 -3.046875 0.71875 -3.046875 C 0.78125 -3.046875 0.832031 -3.023438 0.875 -2.984375 C 0.925781 -2.941406 0.953125 -2.882812 0.953125 -2.8125 L 0.953125 -2.46875 C 1.035156 -2.644531 1.15625 -2.78125 1.3125 -2.875 C 1.46875 -2.96875 1.648438 -3.023438 1.859375 -3.046875 Z M 1.9375 -3.046875 "/></g></g></g><g fill="#c64fff" fill-opacity="1"><g transform="translate(85.539516, 153.810223)"><g/></g></g><g fill="#c64fff" fill-opacity="1"><g transform="translate(87.124148, 153.810223)"><g><path d="M 4.375 -4.359375 C 4.457031 -4.359375 4.519531 -4.332031 4.5625 -4.28125 C 4.601562 -4.238281 4.625 -4.179688 4.625 -4.109375 L 4.625 -0.21875 C 4.625 -0.144531 4.601562 -0.0820312 4.5625 -0.03125 C 4.519531 0.0078125 4.460938 0.03125 4.390625 0.03125 C 4.316406 0.03125 4.257812 0.0078125 4.21875 -0.03125 C 4.1875 -0.0820312 4.171875 -0.144531 4.171875 -0.21875 L 4.171875 -3.359375 L 2.84375 -0.796875 C 2.78125 -0.679688 2.691406 -0.625 2.578125 -0.625 C 2.472656 -0.625 2.390625 -0.679688 2.328125 -0.796875 L 1 -3.328125 L 1 -0.21875 C 1 -0.144531 0.976562 -0.0820312 0.9375 -0.03125 C 0.894531 0.0078125 0.835938 0.03125 0.765625 0.03125 C 0.691406 0.03125 0.632812 0.0078125 0.59375 -0.03125 C 0.550781 -0.0820312 0.53125 -0.144531 0.53125 -0.21875 L 0.53125 -4.109375 C 0.53125 -4.179688 0.550781 -4.238281 0.59375 -4.28125 C 0.644531 -4.332031 0.707031 -4.359375 0.78125 -4.359375 C 0.882812 -4.359375 0.96875 -4.300781 1.03125 -4.1875 L 2.59375 -1.1875 L 4.125 -4.1875 C 4.164062 -4.25 4.203125 -4.289062 4.234375 -4.3125 C 4.273438 -4.34375 4.320312 -4.359375 4.375 -4.359375 Z M 4.375 -4.359375 "/></g></g></g><g fill="#c64fff" fill-opacity="1"><g transform="translate(92.28956, 153.810223)"><g><path d="M 1.6875 -3.0625 C 2.4375 -3.0625 2.8125 -2.671875 2.8125 -1.890625 L 2.8125 -0.21875 C 2.8125 -0.144531 2.785156 -0.0820312 2.734375 -0.03125 C 2.691406 0.0078125 2.632812 0.03125 2.5625 0.03125 C 2.488281 0.03125 2.429688 0.0078125 2.390625 -0.03125 C 2.347656 -0.0820312 2.328125 -0.144531 2.328125 -0.21875 L 2.328125 -0.515625 C 2.242188 -0.335938 2.117188 -0.195312 1.953125 -0.09375 C 1.796875 0 1.613281 0.046875 1.40625 0.046875 C 1.21875 0.046875 1.039062 0.0078125 0.875 -0.0625 C 0.71875 -0.144531 0.59375 -0.253906 0.5 -0.390625 C 0.40625 -0.535156 0.359375 -0.691406 0.359375 -0.859375 C 0.359375 -1.085938 0.414062 -1.265625 0.53125 -1.390625 C 0.644531 -1.515625 0.832031 -1.601562 1.09375 -1.65625 C 1.351562 -1.707031 1.71875 -1.734375 2.1875 -1.734375 L 2.328125 -1.734375 L 2.328125 -1.9375 C 2.328125 -2.1875 2.273438 -2.367188 2.171875 -2.484375 C 2.066406 -2.597656 1.90625 -2.65625 1.6875 -2.65625 C 1.40625 -2.65625 1.117188 -2.578125 0.828125 -2.421875 C 0.722656 -2.359375 0.648438 -2.328125 0.609375 -2.328125 C 0.554688 -2.328125 0.515625 -2.34375 0.484375 -2.375 C 0.453125 -2.414062 0.4375 -2.460938 0.4375 -2.515625 C 0.4375 -2.578125 0.453125 -2.628906 0.484375 -2.671875 C 0.515625 -2.710938 0.570312 -2.753906 0.65625 -2.796875 C 0.789062 -2.878906 0.945312 -2.941406 1.125 -2.984375 C 1.3125 -3.035156 1.5 -3.0625 1.6875 -3.0625 Z M 1.484375 -0.34375 C 1.722656 -0.34375 1.921875 -0.425781 2.078125 -0.59375 C 2.242188 -0.757812 2.328125 -0.972656 2.328125 -1.234375 L 2.328125 -1.421875 L 2.203125 -1.421875 C 1.847656 -1.421875 1.578125 -1.40625 1.390625 -1.375 C 1.203125 -1.34375 1.066406 -1.289062 0.984375 -1.21875 C 0.898438 -1.144531 0.859375 -1.039062 0.859375 -0.90625 C 0.859375 -0.738281 0.914062 -0.601562 1.03125 -0.5 C 1.15625 -0.394531 1.304688 -0.34375 1.484375 -0.34375 Z M 1.484375 -0.34375 "/></g></g></g><g fill="#c64fff" fill-opacity="1"><g transform="translate(95.544809, 153.810223)"><g><path d="M 1.96875 -3.0625 C 2.6875 -3.0625 3.046875 -2.664062 3.046875 -1.875 L 3.046875 -0.21875 C 3.046875 -0.132812 3.019531 -0.0703125 2.96875 -0.03125 C 2.925781 0.0078125 2.867188 0.03125 2.796875 0.03125 C 2.710938 0.03125 2.648438 0.0078125 2.609375 -0.03125 C 2.566406 -0.0703125 2.546875 -0.132812 2.546875 -0.21875 L 2.546875 -1.84375 C 2.546875 -2.125 2.488281 -2.328125 2.375 -2.453125 C 2.269531 -2.578125 2.097656 -2.640625 1.859375 -2.640625 C 1.585938 -2.640625 1.367188 -2.554688 1.203125 -2.390625 C 1.035156 -2.222656 0.953125 -2 0.953125 -1.71875 L 0.953125 -0.21875 C 0.953125 -0.132812 0.929688 -0.0703125 0.890625 -0.03125 C 0.847656 0.0078125 0.789062 0.03125 0.71875 0.03125 C 0.632812 0.03125 0.566406 0.0078125 0.515625 -0.03125 C 0.472656 -0.0703125 0.453125 -0.132812 0.453125 -0.21875 L 0.453125 -2.8125 C 0.453125 -2.882812 0.472656 -2.941406 0.515625 -2.984375 C 0.566406 -3.023438 0.632812 -3.046875 0.71875 -3.046875 C 0.789062 -3.046875 0.847656 -3.023438 0.890625 -2.984375 C 0.929688 -2.941406 0.953125 -2.882812 0.953125 -2.8125 L 0.953125 -2.5 C 1.046875 -2.6875 1.179688 -2.828125 1.359375 -2.921875 C 1.535156 -3.015625 1.738281 -3.0625 1.96875 -3.0625 Z M 1.96875 -3.0625 "/></g></g></g><g fill="#c64fff" fill-opacity="1"><g transform="translate(99.033454, 153.810223)"><g><path d="M 1.6875 -3.0625 C 2.4375 -3.0625 2.8125 -2.671875 2.8125 -1.890625 L 2.8125 -0.21875 C 2.8125 -0.144531 2.785156 -0.0820312 2.734375 -0.03125 C 2.691406 0.0078125 2.632812 0.03125 2.5625 0.03125 C 2.488281 0.03125 2.429688 0.0078125 2.390625 -0.03125 C 2.347656 -0.0820312 2.328125 -0.144531 2.328125 -0.21875 L 2.328125 -0.515625 C 2.242188 -0.335938 2.117188 -0.195312 1.953125 -0.09375 C 1.796875 0 1.613281 0.046875 1.40625 0.046875 C 1.21875 0.046875 1.039062 0.0078125 0.875 -0.0625 C 0.71875 -0.144531 0.59375 -0.253906 0.5 -0.390625 C 0.40625 -0.535156 0.359375 -0.691406 0.359375 -0.859375 C 0.359375 -1.085938 0.414062 -1.265625 0.53125 -1.390625 C 0.644531 -1.515625 0.832031 -1.601562 1.09375 -1.65625 C 1.351562 -1.707031 1.71875 -1.734375 2.1875 -1.734375 L 2.328125 -1.734375 L 2.328125 -1.9375 C 2.328125 -2.1875 2.273438 -2.367188 2.171875 -2.484375 C 2.066406 -2.597656 1.90625 -2.65625 1.6875 -2.65625 C 1.40625 -2.65625 1.117188 -2.578125 0.828125 -2.421875 C 0.722656 -2.359375 0.648438 -2.328125 0.609375 -2.328125 C 0.554688 -2.328125 0.515625 -2.34375 0.484375 -2.375 C 0.453125 -2.414062 0.4375 -2.460938 0.4375 -2.515625 C 0.4375 -2.578125 0.453125 -2.628906 0.484375 -2.671875 C 0.515625 -2.710938 0.570312 -2.753906 0.65625 -2.796875 C 0.789062 -2.878906 0.945312 -2.941406 1.125 -2.984375 C 1.3125 -3.035156 1.5 -3.0625 1.6875 -3.0625 Z M 1.484375 -0.34375 C 1.722656 -0.34375 1.921875 -0.425781 2.078125 -0.59375 C 2.242188 -0.757812 2.328125 -0.972656 2.328125 -1.234375 L 2.328125 -1.421875 L 2.203125 -1.421875 C 1.847656 -1.421875 1.578125 -1.40625 1.390625 -1.375 C 1.203125 -1.34375 1.066406 -1.289062 0.984375 -1.21875 C 0.898438 -1.144531 0.859375 -1.039062 0.859375 -0.90625 C 0.859375 -0.738281 0.914062 -0.601562 1.03125 -0.5 C 1.15625 -0.394531 1.304688 -0.34375 1.484375 -0.34375 Z M 1.484375 -0.34375 "/></g></g></g><g fill="#c64fff" fill-opacity="1"><g transform="translate(102.288703, 153.810223)"><g><path d="M 2.890625 -3.046875 C 2.960938 -3.046875 3.019531 -3.023438 3.0625 -2.984375 C 3.113281 -2.941406 3.140625 -2.882812 3.140625 -2.8125 L 3.140625 -0.203125 C 3.140625 0.242188 3.023438 0.578125 2.796875 0.796875 C 2.566406 1.023438 2.226562 1.140625 1.78125 1.140625 C 1.34375 1.140625 0.976562 1.054688 0.6875 0.890625 C 0.53125 0.804688 0.453125 0.710938 0.453125 0.609375 C 0.453125 0.546875 0.46875 0.492188 0.5 0.453125 C 0.53125 0.421875 0.570312 0.40625 0.625 0.40625 C 0.664062 0.40625 0.738281 0.4375 0.84375 0.5 C 0.988281 0.570312 1.128906 0.628906 1.265625 0.671875 C 1.410156 0.722656 1.578125 0.75 1.765625 0.75 C 2.054688 0.75 2.273438 0.671875 2.421875 0.515625 C 2.566406 0.359375 2.640625 0.132812 2.640625 -0.15625 L 2.640625 -0.6875 C 2.554688 -0.5 2.425781 -0.351562 2.25 -0.25 C 2.070312 -0.144531 1.863281 -0.09375 1.625 -0.09375 C 1.363281 -0.09375 1.128906 -0.148438 0.921875 -0.265625 C 0.722656 -0.390625 0.566406 -0.566406 0.453125 -0.796875 C 0.335938 -1.023438 0.28125 -1.285156 0.28125 -1.578125 C 0.28125 -1.867188 0.335938 -2.128906 0.453125 -2.359375 C 0.566406 -2.585938 0.722656 -2.757812 0.921875 -2.875 C 1.128906 -3 1.363281 -3.0625 1.625 -3.0625 C 1.863281 -3.0625 2.066406 -3.007812 2.234375 -2.90625 C 2.410156 -2.800781 2.546875 -2.65625 2.640625 -2.46875 L 2.640625 -2.8125 C 2.640625 -2.882812 2.660156 -2.941406 2.703125 -2.984375 C 2.742188 -3.023438 2.804688 -3.046875 2.890625 -3.046875 Z M 1.71875 -0.5 C 2.007812 -0.5 2.234375 -0.59375 2.390625 -0.78125 C 2.554688 -0.976562 2.640625 -1.242188 2.640625 -1.578125 C 2.640625 -1.910156 2.554688 -2.171875 2.390625 -2.359375 C 2.234375 -2.546875 2.007812 -2.640625 1.71875 -2.640625 C 1.425781 -2.640625 1.195312 -2.546875 1.03125 -2.359375 C 0.863281 -2.171875 0.78125 -1.910156 0.78125 -1.578125 C 0.78125 -1.242188 0.863281 -0.976562 1.03125 -0.78125 C 1.195312 -0.59375 1.425781 -0.5 1.71875 -0.5 Z M 1.71875 -0.5 "/></g></g></g><g fill="#c64fff" fill-opacity="1"><g transform="translate(105.887909, 153.810223)"><g><path d="M 0.71875 0.03125 C 0.644531 0.03125 0.582031 0.0078125 0.53125 -0.03125 C 0.476562 -0.0703125 0.453125 -0.132812 0.453125 -0.21875 L 0.453125 -2.8125 C 0.453125 -2.882812 0.476562 -2.941406 0.53125 -2.984375 C 0.582031 -3.023438 0.644531 -3.046875 0.71875 -3.046875 C 0.789062 -3.046875 0.847656 -3.023438 0.890625 -2.984375 C 0.929688 -2.941406 0.953125 -2.882812 0.953125 -2.8125 L 0.953125 -0.21875 C 0.953125 -0.132812 0.929688 -0.0703125 0.890625 -0.03125 C 0.847656 0.0078125 0.789062 0.03125 0.71875 0.03125 Z M 0.71875 -3.703125 C 0.625 -3.703125 0.546875 -3.726562 0.484375 -3.78125 C 0.421875 -3.84375 0.390625 -3.921875 0.390625 -4.015625 C 0.390625 -4.097656 0.421875 -4.164062 0.484375 -4.21875 C 0.546875 -4.28125 0.625 -4.3125 0.71875 -4.3125 C 0.8125 -4.3125 0.890625 -4.28125 0.953125 -4.21875 C 1.015625 -4.164062 1.046875 -4.097656 1.046875 -4.015625 C 1.046875 -3.921875 1.015625 -3.84375 0.953125 -3.78125 C 0.890625 -3.726562 0.8125 -3.703125 0.71875 -3.703125 Z M 0.71875 -3.703125 "/></g></g></g><g fill="#c64fff" fill-opacity="1"><g transform="translate(107.312851, 153.810223)"><g><path d="M 1.96875 -3.0625 C 2.6875 -3.0625 3.046875 -2.664062 3.046875 -1.875 L 3.046875 -0.21875 C 3.046875 -0.132812 3.019531 -0.0703125 2.96875 -0.03125 C 2.925781 0.0078125 2.867188 0.03125 2.796875 0.03125 C 2.710938 0.03125 2.648438 0.0078125 2.609375 -0.03125 C 2.566406 -0.0703125 2.546875 -0.132812 2.546875 -0.21875 L 2.546875 -1.84375 C 2.546875 -2.125 2.488281 -2.328125 2.375 -2.453125 C 2.269531 -2.578125 2.097656 -2.640625 1.859375 -2.640625 C 1.585938 -2.640625 1.367188 -2.554688 1.203125 -2.390625 C 1.035156 -2.222656 0.953125 -2 0.953125 -1.71875 L 0.953125 -0.21875 C 0.953125 -0.132812 0.929688 -0.0703125 0.890625 -0.03125 C 0.847656 0.0078125 0.789062 0.03125 0.71875 0.03125 C 0.632812 0.03125 0.566406 0.0078125 0.515625 -0.03125 C 0.472656 -0.0703125 0.453125 -0.132812 0.453125 -0.21875 L 0.453125 -2.8125 C 0.453125 -2.882812 0.472656 -2.941406 0.515625 -2.984375 C 0.566406 -3.023438 0.632812 -3.046875 0.71875 -3.046875 C 0.789062 -3.046875 0.847656 -3.023438 0.890625 -2.984375 C 0.929688 -2.941406 0.953125 -2.882812 0.953125 -2.8125 L 0.953125 -2.5 C 1.046875 -2.6875 1.179688 -2.828125 1.359375 -2.921875 C 1.535156 -3.015625 1.738281 -3.0625 1.96875 -3.0625 Z M 1.96875 -3.0625 "/></g></g></g><g fill="#c64fff" fill-opacity="1"><g transform="translate(110.801497, 153.810223)"><g><path d="M 2.890625 -3.046875 C 2.960938 -3.046875 3.019531 -3.023438 3.0625 -2.984375 C 3.113281 -2.941406 3.140625 -2.882812 3.140625 -2.8125 L 3.140625 -0.203125 C 3.140625 0.242188 3.023438 0.578125 2.796875 0.796875 C 2.566406 1.023438 2.226562 1.140625 1.78125 1.140625 C 1.34375 1.140625 0.976562 1.054688 0.6875 0.890625 C 0.53125 0.804688 0.453125 0.710938 0.453125 0.609375 C 0.453125 0.546875 0.46875 0.492188 0.5 0.453125 C 0.53125 0.421875 0.570312 0.40625 0.625 0.40625 C 0.664062 0.40625 0.738281 0.4375 0.84375 0.5 C 0.988281 0.570312 1.128906 0.628906 1.265625 0.671875 C 1.410156 0.722656 1.578125 0.75 1.765625 0.75 C 2.054688 0.75 2.273438 0.671875 2.421875 0.515625 C 2.566406 0.359375 2.640625 0.132812 2.640625 -0.15625 L 2.640625 -0.6875 C 2.554688 -0.5 2.425781 -0.351562 2.25 -0.25 C 2.070312 -0.144531 1.863281 -0.09375 1.625 -0.09375 C 1.363281 -0.09375 1.128906 -0.148438 0.921875 -0.265625 C 0.722656 -0.390625 0.566406 -0.566406 0.453125 -0.796875 C 0.335938 -1.023438 0.28125 -1.285156 0.28125 -1.578125 C 0.28125 -1.867188 0.335938 -2.128906 0.453125 -2.359375 C 0.566406 -2.585938 0.722656 -2.757812 0.921875 -2.875 C 1.128906 -3 1.363281 -3.0625 1.625 -3.0625 C 1.863281 -3.0625 2.066406 -3.007812 2.234375 -2.90625 C 2.410156 -2.800781 2.546875 -2.65625 2.640625 -2.46875 L 2.640625 -2.8125 C 2.640625 -2.882812 2.660156 -2.941406 2.703125 -2.984375 C 2.742188 -3.023438 2.804688 -3.046875 2.890625 -3.046875 Z M 1.71875 -0.5 C 2.007812 -0.5 2.234375 -0.59375 2.390625 -0.78125 C 2.554688 -0.976562 2.640625 -1.242188 2.640625 -1.578125 C 2.640625 -1.910156 2.554688 -2.171875 2.390625 -2.359375 C 2.234375 -2.546875 2.007812 -2.640625 1.71875 -2.640625 C 1.425781 -2.640625 1.195312 -2.546875 1.03125 -2.359375 C 0.863281 -2.171875 0.78125 -1.910156 0.78125 -1.578125 C 0.78125 -1.242188 0.863281 -0.976562 1.03125 -0.78125 C 1.195312 -0.59375 1.425781 -0.5 1.71875 -0.5 Z M 1.71875 -0.5 "/></g></g></g><g fill="#c64fff" fill-opacity="1"><g transform="translate(114.400702, 153.810223)"><g/></g></g><g fill="#c64fff" fill-opacity="1"><g transform="translate(115.985335, 153.810223)"><g><path d="M 1.6875 -3.0625 C 2.4375 -3.0625 2.8125 -2.671875 2.8125 -1.890625 L 2.8125 -0.21875 C 2.8125 -0.144531 2.785156 -0.0820312 2.734375 -0.03125 C 2.691406 0.0078125 2.632812 0.03125 2.5625 0.03125 C 2.488281 0.03125 2.429688 0.0078125 2.390625 -0.03125 C 2.347656 -0.0820312 2.328125 -0.144531 2.328125 -0.21875 L 2.328125 -0.515625 C 2.242188 -0.335938 2.117188 -0.195312 1.953125 -0.09375 C 1.796875 0 1.613281 0.046875 1.40625 0.046875 C 1.21875 0.046875 1.039062 0.0078125 0.875 -0.0625 C 0.71875 -0.144531 0.59375 -0.253906 0.5 -0.390625 C 0.40625 -0.535156 0.359375 -0.691406 0.359375 -0.859375 C 0.359375 -1.085938 0.414062 -1.265625 0.53125 -1.390625 C 0.644531 -1.515625 0.832031 -1.601562 1.09375 -1.65625 C 1.351562 -1.707031 1.71875 -1.734375 2.1875 -1.734375 L 2.328125 -1.734375 L 2.328125 -1.9375 C 2.328125 -2.1875 2.273438 -2.367188 2.171875 -2.484375 C 2.066406 -2.597656 1.90625 -2.65625 1.6875 -2.65625 C 1.40625 -2.65625 1.117188 -2.578125 0.828125 -2.421875 C 0.722656 -2.359375 0.648438 -2.328125 0.609375 -2.328125 C 0.554688 -2.328125 0.515625 -2.34375 0.484375 -2.375 C 0.453125 -2.414062 0.4375 -2.460938 0.4375 -2.515625 C 0.4375 -2.578125 0.453125 -2.628906 0.484375 -2.671875 C 0.515625 -2.710938 0.570312 -2.753906 0.65625 -2.796875 C 0.789062 -2.878906 0.945312 -2.941406 1.125 -2.984375 C 1.3125 -3.035156 1.5 -3.0625 1.6875 -3.0625 Z M 1.484375 -0.34375 C 1.722656 -0.34375 1.921875 -0.425781 2.078125 -0.59375 C 2.242188 -0.757812 2.328125 -0.972656 2.328125 -1.234375 L 2.328125 -1.421875 L 2.203125 -1.421875 C 1.847656 -1.421875 1.578125 -1.40625 1.390625 -1.375 C 1.203125 -1.34375 1.066406 -1.289062 0.984375 -1.21875 C 0.898438 -1.144531 0.859375 -1.039062 0.859375 -0.90625 C 0.859375 -0.738281 0.914062 -0.601562 1.03125 -0.5 C 1.15625 -0.394531 1.304688 -0.34375 1.484375 -0.34375 Z M 1.484375 -0.34375 "/></g></g></g><g fill="#c64fff" fill-opacity="1"><g transform="translate(119.240584, 153.810223)"><g><path d="M 1.96875 -3.0625 C 2.6875 -3.0625 3.046875 -2.664062 3.046875 -1.875 L 3.046875 -0.21875 C 3.046875 -0.132812 3.019531 -0.0703125 2.96875 -0.03125 C 2.925781 0.0078125 2.867188 0.03125 2.796875 0.03125 C 2.710938 0.03125 2.648438 0.0078125 2.609375 -0.03125 C 2.566406 -0.0703125 2.546875 -0.132812 2.546875 -0.21875 L 2.546875 -1.84375 C 2.546875 -2.125 2.488281 -2.328125 2.375 -2.453125 C 2.269531 -2.578125 2.097656 -2.640625 1.859375 -2.640625 C 1.585938 -2.640625 1.367188 -2.554688 1.203125 -2.390625 C 1.035156 -2.222656 0.953125 -2 0.953125 -1.71875 L 0.953125 -0.21875 C 0.953125 -0.132812 0.929688 -0.0703125 0.890625 -0.03125 C 0.847656 0.0078125 0.789062 0.03125 0.71875 0.03125 C 0.632812 0.03125 0.566406 0.0078125 0.515625 -0.03125 C 0.472656 -0.0703125 0.453125 -0.132812 0.453125 -0.21875 L 0.453125 -2.8125 C 0.453125 -2.882812 0.472656 -2.941406 0.515625 -2.984375 C 0.566406 -3.023438 0.632812 -3.046875 0.71875 -3.046875 C 0.789062 -3.046875 0.847656 -3.023438 0.890625 -2.984375 C 0.929688 -2.941406 0.953125 -2.882812 0.953125 -2.8125 L 0.953125 -2.5 C 1.046875 -2.6875 1.179688 -2.828125 1.359375 -2.921875 C 1.535156 -3.015625 1.738281 -3.0625 1.96875 -3.0625 Z M 1.96875 -3.0625 "/></g></g></g><g fill="#c64fff" fill-opacity="1"><g transform="translate(122.72923, 153.810223)"><g><path d="M 2.859375 -4.359375 C 2.941406 -4.359375 3.003906 -4.332031 3.046875 -4.28125 C 3.085938 -4.238281 3.109375 -4.1875 3.109375 -4.125 L 3.109375 -0.21875 C 3.109375 -0.144531 3.085938 -0.0820312 3.046875 -0.03125 C 3.003906 0.0078125 2.941406 0.03125 2.859375 0.03125 C 2.785156 0.03125 2.722656 0.0078125 2.671875 -0.03125 C 2.628906 -0.0820312 2.609375 -0.144531 2.609375 -0.21875 L 2.609375 -0.546875 C 2.523438 -0.359375 2.394531 -0.210938 2.21875 -0.109375 C 2.039062 -0.00390625 1.835938 0.046875 1.609375 0.046875 C 1.347656 0.046875 1.113281 -0.015625 0.90625 -0.140625 C 0.707031 -0.273438 0.550781 -0.460938 0.4375 -0.703125 C 0.332031 -0.941406 0.28125 -1.210938 0.28125 -1.515625 C 0.28125 -1.828125 0.332031 -2.097656 0.4375 -2.328125 C 0.550781 -2.566406 0.707031 -2.75 0.90625 -2.875 C 1.113281 -3 1.347656 -3.0625 1.609375 -3.0625 C 1.835938 -3.0625 2.039062 -3.007812 2.21875 -2.90625 C 2.394531 -2.800781 2.523438 -2.65625 2.609375 -2.46875 L 2.609375 -4.125 C 2.609375 -4.195312 2.628906 -4.253906 2.671875 -4.296875 C 2.722656 -4.335938 2.785156 -4.359375 2.859375 -4.359375 Z M 1.703125 -0.375 C 1.992188 -0.375 2.21875 -0.472656 2.375 -0.671875 C 2.53125 -0.867188 2.609375 -1.148438 2.609375 -1.515625 C 2.609375 -1.878906 2.53125 -2.15625 2.375 -2.34375 C 2.21875 -2.539062 1.992188 -2.640625 1.703125 -2.640625 C 1.410156 -2.640625 1.179688 -2.539062 1.015625 -2.34375 C 0.859375 -2.15625 0.78125 -1.878906 0.78125 -1.515625 C 0.78125 -1.148438 0.859375 -0.867188 1.015625 -0.671875 C 1.179688 -0.472656 1.410156 -0.375 1.703125 -0.375 Z M 1.703125 -0.375 "/></g></g></g><g fill="#c64fff" fill-opacity="1"><g transform="translate(126.303866, 153.810223)"><g/></g></g><g fill="#c64fff" fill-opacity="1"><g transform="translate(127.888499, 153.810223)"><g><path d="M 4.375 -4.359375 C 4.457031 -4.359375 4.519531 -4.332031 4.5625 -4.28125 C 4.601562 -4.238281 4.625 -4.179688 4.625 -4.109375 L 4.625 -0.21875 C 4.625 -0.144531 4.601562 -0.0820312 4.5625 -0.03125 C 4.519531 0.0078125 4.460938 0.03125 4.390625 0.03125 C 4.316406 0.03125 4.257812 0.0078125 4.21875 -0.03125 C 4.1875 -0.0820312 4.171875 -0.144531 4.171875 -0.21875 L 4.171875 -3.359375 L 2.84375 -0.796875 C 2.78125 -0.679688 2.691406 -0.625 2.578125 -0.625 C 2.472656 -0.625 2.390625 -0.679688 2.328125 -0.796875 L 1 -3.328125 L 1 -0.21875 C 1 -0.144531 0.976562 -0.0820312 0.9375 -0.03125 C 0.894531 0.0078125 0.835938 0.03125 0.765625 0.03125 C 0.691406 0.03125 0.632812 0.0078125 0.59375 -0.03125 C 0.550781 -0.0820312 0.53125 -0.144531 0.53125 -0.21875 L 0.53125 -4.109375 C 0.53125 -4.179688 0.550781 -4.238281 0.59375 -4.28125 C 0.644531 -4.332031 0.707031 -4.359375 0.78125 -4.359375 C 0.882812 -4.359375 0.96875 -4.300781 1.03125 -4.1875 L 2.59375 -1.1875 L 4.125 -4.1875 C 4.164062 -4.25 4.203125 -4.289062 4.234375 -4.3125 C 4.273438 -4.34375 4.320312 -4.359375 4.375 -4.359375 Z M 4.375 -4.359375 "/></g></g></g><g fill="#c64fff" fill-opacity="1"><g transform="translate(133.05391, 153.810223)"><g><path d="M 1.703125 0.046875 C 1.421875 0.046875 1.171875 -0.015625 0.953125 -0.140625 C 0.734375 -0.273438 0.566406 -0.457031 0.453125 -0.6875 C 0.335938 -0.925781 0.28125 -1.203125 0.28125 -1.515625 C 0.28125 -1.828125 0.335938 -2.097656 0.453125 -2.328125 C 0.566406 -2.566406 0.734375 -2.75 0.953125 -2.875 C 1.171875 -3 1.421875 -3.0625 1.703125 -3.0625 C 1.984375 -3.0625 2.234375 -3 2.453125 -2.875 C 2.671875 -2.75 2.835938 -2.566406 2.953125 -2.328125 C 3.066406 -2.097656 3.125 -1.828125 3.125 -1.515625 C 3.125 -1.203125 3.066406 -0.925781 2.953125 -0.6875 C 2.835938 -0.457031 2.671875 -0.273438 2.453125 -0.140625 C 2.234375 -0.015625 1.984375 0.046875 1.703125 0.046875 Z M 1.703125 -0.375 C 1.992188 -0.375 2.21875 -0.46875 2.375 -0.65625 C 2.53125 -0.851562 2.609375 -1.140625 2.609375 -1.515625 C 2.609375 -1.878906 2.53125 -2.160156 2.375 -2.359375 C 2.21875 -2.554688 1.992188 -2.65625 1.703125 -2.65625 C 1.410156 -2.65625 1.179688 -2.554688 1.015625 -2.359375 C 0.859375 -2.160156 0.78125 -1.878906 0.78125 -1.515625 C 0.78125 -1.140625 0.859375 -0.851562 1.015625 -0.65625 C 1.179688 -0.46875 1.410156 -0.375 1.703125 -0.375 Z M 1.703125 -0.375 "/></g></g></g><g fill="#c64fff" fill-opacity="1"><g transform="translate(136.462714, 153.810223)"><g><path d="M 1.96875 -3.0625 C 2.6875 -3.0625 3.046875 -2.664062 3.046875 -1.875 L 3.046875 -0.21875 C 3.046875 -0.132812 3.019531 -0.0703125 2.96875 -0.03125 C 2.925781 0.0078125 2.867188 0.03125 2.796875 0.03125 C 2.710938 0.03125 2.648438 0.0078125 2.609375 -0.03125 C 2.566406 -0.0703125 2.546875 -0.132812 2.546875 -0.21875 L 2.546875 -1.84375 C 2.546875 -2.125 2.488281 -2.328125 2.375 -2.453125 C 2.269531 -2.578125 2.097656 -2.640625 1.859375 -2.640625 C 1.585938 -2.640625 1.367188 -2.554688 1.203125 -2.390625 C 1.035156 -2.222656 0.953125 -2 0.953125 -1.71875 L 0.953125 -0.21875 C 0.953125 -0.132812 0.929688 -0.0703125 0.890625 -0.03125 C 0.847656 0.0078125 0.789062 0.03125 0.71875 0.03125 C 0.632812 0.03125 0.566406 0.0078125 0.515625 -0.03125 C 0.472656 -0.0703125 0.453125 -0.132812 0.453125 -0.21875 L 0.453125 -2.8125 C 0.453125 -2.882812 0.472656 -2.941406 0.515625 -2.984375 C 0.566406 -3.023438 0.632812 -3.046875 0.71875 -3.046875 C 0.789062 -3.046875 0.847656 -3.023438 0.890625 -2.984375 C 0.929688 -2.941406 0.953125 -2.882812 0.953125 -2.8125 L 0.953125 -2.5 C 1.046875 -2.6875 1.179688 -2.828125 1.359375 -2.921875 C 1.535156 -3.015625 1.738281 -3.0625 1.96875 -3.0625 Z M 1.96875 -3.0625 "/></g></g></g><g fill="#c64fff" fill-opacity="1"><g transform="translate(139.95136, 153.810223)"><g><path d="M 0.71875 0.03125 C 0.644531 0.03125 0.582031 0.0078125 0.53125 -0.03125 C 0.476562 -0.0703125 0.453125 -0.132812 0.453125 -0.21875 L 0.453125 -2.8125 C 0.453125 -2.882812 0.476562 -2.941406 0.53125 -2.984375 C 0.582031 -3.023438 0.644531 -3.046875 0.71875 -3.046875 C 0.789062 -3.046875 0.847656 -3.023438 0.890625 -2.984375 C 0.929688 -2.941406 0.953125 -2.882812 0.953125 -2.8125 L 0.953125 -0.21875 C 0.953125 -0.132812 0.929688 -0.0703125 0.890625 -0.03125 C 0.847656 0.0078125 0.789062 0.03125 0.71875 0.03125 Z M 0.71875 -3.703125 C 0.625 -3.703125 0.546875 -3.726562 0.484375 -3.78125 C 0.421875 -3.84375 0.390625 -3.921875 0.390625 -4.015625 C 0.390625 -4.097656 0.421875 -4.164062 0.484375 -4.21875 C 0.546875 -4.28125 0.625 -4.3125 0.71875 -4.3125 C 0.8125 -4.3125 0.890625 -4.28125 0.953125 -4.21875 C 1.015625 -4.164062 1.046875 -4.097656 1.046875 -4.015625 C 1.046875 -3.921875 1.015625 -3.84375 0.953125 -3.78125 C 0.890625 -3.726562 0.8125 -3.703125 0.71875 -3.703125 Z M 0.71875 -3.703125 "/></g></g></g><g fill="#c64fff" fill-opacity="1"><g transform="translate(141.376302, 153.810223)"><g><path d="M 1.84375 -0.359375 C 1.988281 -0.347656 2.0625 -0.285156 2.0625 -0.171875 C 2.0625 -0.0976562 2.035156 -0.0390625 1.984375 0 C 1.929688 0.03125 1.851562 0.0390625 1.75 0.03125 L 1.578125 0.015625 C 1.253906 -0.00390625 1.015625 -0.0976562 0.859375 -0.265625 C 0.703125 -0.441406 0.625 -0.707031 0.625 -1.0625 L 0.625 -2.59375 L 0.21875 -2.59375 C 0.144531 -2.59375 0.0859375 -2.609375 0.046875 -2.640625 C 0.015625 -2.679688 0 -2.726562 0 -2.78125 C 0 -2.84375 0.015625 -2.890625 0.046875 -2.921875 C 0.0859375 -2.960938 0.144531 -2.984375 0.21875 -2.984375 L 0.625 -2.984375 L 0.625 -3.6875 C 0.625 -3.757812 0.644531 -3.816406 0.6875 -3.859375 C 0.738281 -3.910156 0.800781 -3.9375 0.875 -3.9375 C 0.945312 -3.9375 1.003906 -3.910156 1.046875 -3.859375 C 1.097656 -3.816406 1.125 -3.757812 1.125 -3.6875 L 1.125 -2.984375 L 1.8125 -2.984375 C 1.875 -2.984375 1.921875 -2.960938 1.953125 -2.921875 C 1.992188 -2.890625 2.015625 -2.84375 2.015625 -2.78125 C 2.015625 -2.726562 1.992188 -2.679688 1.953125 -2.640625 C 1.921875 -2.609375 1.875 -2.59375 1.8125 -2.59375 L 1.125 -2.59375 L 1.125 -1.03125 C 1.125 -0.800781 1.171875 -0.632812 1.265625 -0.53125 C 1.359375 -0.4375 1.492188 -0.382812 1.671875 -0.375 Z M 1.84375 -0.359375 "/></g></g></g><g fill="#c64fff" fill-opacity="1"><g transform="translate(143.464575, 153.810223)"><g><path d="M 1.703125 0.046875 C 1.421875 0.046875 1.171875 -0.015625 0.953125 -0.140625 C 0.734375 -0.273438 0.566406 -0.457031 0.453125 -0.6875 C 0.335938 -0.925781 0.28125 -1.203125 0.28125 -1.515625 C 0.28125 -1.828125 0.335938 -2.097656 0.453125 -2.328125 C 0.566406 -2.566406 0.734375 -2.75 0.953125 -2.875 C 1.171875 -3 1.421875 -3.0625 1.703125 -3.0625 C 1.984375 -3.0625 2.234375 -3 2.453125 -2.875 C 2.671875 -2.75 2.835938 -2.566406 2.953125 -2.328125 C 3.066406 -2.097656 3.125 -1.828125 3.125 -1.515625 C 3.125 -1.203125 3.066406 -0.925781 2.953125 -0.6875 C 2.835938 -0.457031 2.671875 -0.273438 2.453125 -0.140625 C 2.234375 -0.015625 1.984375 0.046875 1.703125 0.046875 Z M 1.703125 -0.375 C 1.992188 -0.375 2.21875 -0.46875 2.375 -0.65625 C 2.53125 -0.851562 2.609375 -1.140625 2.609375 -1.515625 C 2.609375 -1.878906 2.53125 -2.160156 2.375 -2.359375 C 2.21875 -2.554688 1.992188 -2.65625 1.703125 -2.65625 C 1.410156 -2.65625 1.179688 -2.554688 1.015625 -2.359375 C 0.859375 -2.160156 0.78125 -1.878906 0.78125 -1.515625 C 0.78125 -1.140625 0.859375 -0.851562 1.015625 -0.65625 C 1.179688 -0.46875 1.410156 -0.375 1.703125 -0.375 Z M 1.703125 -0.375 "/></g></g></g><g fill="#c64fff" fill-opacity="1"><g transform="translate(146.873379, 153.810223)"><g><path d="M 1.9375 -3.046875 C 2.113281 -3.066406 2.203125 -3 2.203125 -2.84375 C 2.203125 -2.78125 2.179688 -2.726562 2.140625 -2.6875 C 2.109375 -2.644531 2.046875 -2.617188 1.953125 -2.609375 L 1.765625 -2.59375 C 1.492188 -2.570312 1.289062 -2.472656 1.15625 -2.296875 C 1.019531 -2.128906 0.953125 -1.929688 0.953125 -1.703125 L 0.953125 -0.21875 C 0.953125 -0.132812 0.929688 -0.0703125 0.890625 -0.03125 C 0.847656 0.0078125 0.789062 0.03125 0.71875 0.03125 C 0.644531 0.03125 0.582031 0.0078125 0.53125 -0.03125 C 0.476562 -0.0703125 0.453125 -0.132812 0.453125 -0.21875 L 0.453125 -2.8125 C 0.453125 -2.882812 0.476562 -2.941406 0.53125 -2.984375 C 0.582031 -3.023438 0.644531 -3.046875 0.71875 -3.046875 C 0.78125 -3.046875 0.832031 -3.023438 0.875 -2.984375 C 0.925781 -2.941406 0.953125 -2.882812 0.953125 -2.8125 L 0.953125 -2.46875 C 1.035156 -2.644531 1.15625 -2.78125 1.3125 -2.875 C 1.46875 -2.96875 1.648438 -3.023438 1.859375 -3.046875 Z M 1.9375 -3.046875 "/></g></g></g><g fill="#c64fff" fill-opacity="1"><g transform="translate(149.0415, 153.810223)"><g><path d="M 0.71875 0.03125 C 0.644531 0.03125 0.582031 0.0078125 0.53125 -0.03125 C 0.476562 -0.0703125 0.453125 -0.132812 0.453125 -0.21875 L 0.453125 -2.8125 C 0.453125 -2.882812 0.476562 -2.941406 0.53125 -2.984375 C 0.582031 -3.023438 0.644531 -3.046875 0.71875 -3.046875 C 0.789062 -3.046875 0.847656 -3.023438 0.890625 -2.984375 C 0.929688 -2.941406 0.953125 -2.882812 0.953125 -2.8125 L 0.953125 -0.21875 C 0.953125 -0.132812 0.929688 -0.0703125 0.890625 -0.03125 C 0.847656 0.0078125 0.789062 0.03125 0.71875 0.03125 Z M 0.71875 -3.703125 C 0.625 -3.703125 0.546875 -3.726562 0.484375 -3.78125 C 0.421875 -3.84375 0.390625 -3.921875 0.390625 -4.015625 C 0.390625 -4.097656 0.421875 -4.164062 0.484375 -4.21875 C 0.546875 -4.28125 0.625 -4.3125 0.71875 -4.3125 C 0.8125 -4.3125 0.890625 -4.28125 0.953125 -4.21875 C 1.015625 -4.164062 1.046875 -4.097656 1.046875 -4.015625 C 1.046875 -3.921875 1.015625 -3.84375 0.953125 -3.78125 C 0.890625 -3.726562 0.8125 -3.703125 0.71875 -3.703125 Z M 0.71875 -3.703125 "/></g></g></g><g fill="#c64fff" fill-opacity="1"><g transform="translate(150.466442, 153.810223)"><g><path d="M 1.96875 -3.0625 C 2.6875 -3.0625 3.046875 -2.664062 3.046875 -1.875 L 3.046875 -0.21875 C 3.046875 -0.132812 3.019531 -0.0703125 2.96875 -0.03125 C 2.925781 0.0078125 2.867188 0.03125 2.796875 0.03125 C 2.710938 0.03125 2.648438 0.0078125 2.609375 -0.03125 C 2.566406 -0.0703125 2.546875 -0.132812 2.546875 -0.21875 L 2.546875 -1.84375 C 2.546875 -2.125 2.488281 -2.328125 2.375 -2.453125 C 2.269531 -2.578125 2.097656 -2.640625 1.859375 -2.640625 C 1.585938 -2.640625 1.367188 -2.554688 1.203125 -2.390625 C 1.035156 -2.222656 0.953125 -2 0.953125 -1.71875 L 0.953125 -0.21875 C 0.953125 -0.132812 0.929688 -0.0703125 0.890625 -0.03125 C 0.847656 0.0078125 0.789062 0.03125 0.71875 0.03125 C 0.632812 0.03125 0.566406 0.0078125 0.515625 -0.03125 C 0.472656 -0.0703125 0.453125 -0.132812 0.453125 -0.21875 L 0.453125 -2.8125 C 0.453125 -2.882812 0.472656 -2.941406 0.515625 -2.984375 C 0.566406 -3.023438 0.632812 -3.046875 0.71875 -3.046875 C 0.789062 -3.046875 0.847656 -3.023438 0.890625 -2.984375 C 0.929688 -2.941406 0.953125 -2.882812 0.953125 -2.8125 L 0.953125 -2.5 C 1.046875 -2.6875 1.179688 -2.828125 1.359375 -2.921875 C 1.535156 -3.015625 1.738281 -3.0625 1.96875 -3.0625 Z M 1.96875 -3.0625 "/></g></g></g><g fill="#c64fff" fill-opacity="1"><g transform="translate(153.955087, 153.810223)"><g><path d="M 2.890625 -3.046875 C 2.960938 -3.046875 3.019531 -3.023438 3.0625 -2.984375 C 3.113281 -2.941406 3.140625 -2.882812 3.140625 -2.8125 L 3.140625 -0.203125 C 3.140625 0.242188 3.023438 0.578125 2.796875 0.796875 C 2.566406 1.023438 2.226562 1.140625 1.78125 1.140625 C 1.34375 1.140625 0.976562 1.054688 0.6875 0.890625 C 0.53125 0.804688 0.453125 0.710938 0.453125 0.609375 C 0.453125 0.546875 0.46875 0.492188 0.5 0.453125 C 0.53125 0.421875 0.570312 0.40625 0.625 0.40625 C 0.664062 0.40625 0.738281 0.4375 0.84375 0.5 C 0.988281 0.570312 1.128906 0.628906 1.265625 0.671875 C 1.410156 0.722656 1.578125 0.75 1.765625 0.75 C 2.054688 0.75 2.273438 0.671875 2.421875 0.515625 C 2.566406 0.359375 2.640625 0.132812 2.640625 -0.15625 L 2.640625 -0.6875 C 2.554688 -0.5 2.425781 -0.351562 2.25 -0.25 C 2.070312 -0.144531 1.863281 -0.09375 1.625 -0.09375 C 1.363281 -0.09375 1.128906 -0.148438 0.921875 -0.265625 C 0.722656 -0.390625 0.566406 -0.566406 0.453125 -0.796875 C 0.335938 -1.023438 0.28125 -1.285156 0.28125 -1.578125 C 0.28125 -1.867188 0.335938 -2.128906 0.453125 -2.359375 C 0.566406 -2.585938 0.722656 -2.757812 0.921875 -2.875 C 1.128906 -3 1.363281 -3.0625 1.625 -3.0625 C 1.863281 -3.0625 2.066406 -3.007812 2.234375 -2.90625 C 2.410156 -2.800781 2.546875 -2.65625 2.640625 -2.46875 L 2.640625 -2.8125 C 2.640625 -2.882812 2.660156 -2.941406 2.703125 -2.984375 C 2.742188 -3.023438 2.804688 -3.046875 2.890625 -3.046875 Z M 1.71875 -0.5 C 2.007812 -0.5 2.234375 -0.59375 2.390625 -0.78125 C 2.554688 -0.976562 2.640625 -1.242188 2.640625 -1.578125 C 2.640625 -1.910156 2.554688 -2.171875 2.390625 -2.359375 C 2.234375 -2.546875 2.007812 -2.640625 1.71875 -2.640625 C 1.425781 -2.640625 1.195312 -2.546875 1.03125 -2.359375 C 0.863281 -2.171875 0.78125 -1.910156 0.78125 -1.578125 C 0.78125 -1.242188 0.863281 -0.976562 1.03125 -0.78125 C 1.195312 -0.59375 1.425781 -0.5 1.71875 -0.5 Z M 1.71875 -0.5 "/></g></g></g><g fill="#c64fff" fill-opacity="1"><g transform="translate(157.554293, 153.810223)"><g/></g></g><g fill="#c64fff" fill-opacity="1"><g transform="translate(159.138925, 153.810223)"><g><path d="M 1.921875 0.046875 C 1.609375 0.046875 1.3125 0 1.03125 -0.09375 C 0.75 -0.1875 0.523438 -0.304688 0.359375 -0.453125 C 0.296875 -0.515625 0.265625 -0.585938 0.265625 -0.671875 C 0.265625 -0.734375 0.28125 -0.785156 0.3125 -0.828125 C 0.351562 -0.867188 0.394531 -0.890625 0.4375 -0.890625 C 0.488281 -0.890625 0.546875 -0.867188 0.609375 -0.828125 C 0.984375 -0.523438 1.414062 -0.375 1.90625 -0.375 C 2.257812 -0.375 2.53125 -0.441406 2.71875 -0.578125 C 2.90625 -0.710938 3 -0.90625 3 -1.15625 C 3 -1.300781 2.953125 -1.414062 2.859375 -1.5 C 2.773438 -1.59375 2.660156 -1.664062 2.515625 -1.71875 C 2.367188 -1.769531 2.171875 -1.828125 1.921875 -1.890625 C 1.578125 -1.960938 1.296875 -2.039062 1.078125 -2.125 C 0.867188 -2.21875 0.695312 -2.34375 0.5625 -2.5 C 0.4375 -2.65625 0.375 -2.863281 0.375 -3.125 C 0.375 -3.375 0.4375 -3.59375 0.5625 -3.78125 C 0.695312 -3.96875 0.882812 -4.113281 1.125 -4.21875 C 1.363281 -4.320312 1.640625 -4.375 1.953125 -4.375 C 2.234375 -4.375 2.5 -4.328125 2.75 -4.234375 C 3 -4.148438 3.207031 -4.03125 3.375 -3.875 C 3.4375 -3.800781 3.46875 -3.726562 3.46875 -3.65625 C 3.46875 -3.59375 3.453125 -3.539062 3.421875 -3.5 C 3.390625 -3.457031 3.347656 -3.4375 3.296875 -3.4375 C 3.253906 -3.4375 3.195312 -3.457031 3.125 -3.5 C 2.925781 -3.664062 2.738281 -3.78125 2.5625 -3.84375 C 2.394531 -3.914062 2.191406 -3.953125 1.953125 -3.953125 C 1.609375 -3.953125 1.34375 -3.878906 1.15625 -3.734375 C 0.96875 -3.597656 0.875 -3.398438 0.875 -3.140625 C 0.875 -2.921875 0.957031 -2.757812 1.125 -2.65625 C 1.289062 -2.550781 1.546875 -2.457031 1.890625 -2.375 C 2.253906 -2.28125 2.539062 -2.195312 2.75 -2.125 C 2.96875 -2.050781 3.144531 -1.9375 3.28125 -1.78125 C 3.425781 -1.625 3.5 -1.421875 3.5 -1.171875 C 3.5 -0.929688 3.429688 -0.71875 3.296875 -0.53125 C 3.171875 -0.351562 2.984375 -0.210938 2.734375 -0.109375 C 2.492188 -0.00390625 2.222656 0.046875 1.921875 0.046875 Z M 1.921875 0.046875 "/></g></g></g><g fill="#c64fff" fill-opacity="1"><g transform="translate(162.928532, 153.810223)"><g><path d="M 1.6875 0.046875 C 1.414062 0.046875 1.171875 -0.015625 0.953125 -0.140625 C 0.734375 -0.273438 0.566406 -0.457031 0.453125 -0.6875 C 0.335938 -0.914062 0.28125 -1.1875 0.28125 -1.5 C 0.28125 -1.800781 0.335938 -2.070312 0.453125 -2.3125 C 0.578125 -2.550781 0.75 -2.734375 0.96875 -2.859375 C 1.1875 -2.992188 1.4375 -3.0625 1.71875 -3.0625 C 1.875 -3.0625 2.023438 -3.039062 2.171875 -3 C 2.328125 -2.957031 2.460938 -2.894531 2.578125 -2.8125 C 2.660156 -2.757812 2.710938 -2.707031 2.734375 -2.65625 C 2.765625 -2.613281 2.78125 -2.566406 2.78125 -2.515625 C 2.78125 -2.453125 2.765625 -2.398438 2.734375 -2.359375 C 2.710938 -2.328125 2.675781 -2.3125 2.625 -2.3125 C 2.59375 -2.3125 2.5625 -2.316406 2.53125 -2.328125 C 2.5 -2.347656 2.46875 -2.363281 2.4375 -2.375 C 2.414062 -2.394531 2.40625 -2.410156 2.40625 -2.421875 C 2.289062 -2.492188 2.1875 -2.546875 2.09375 -2.578125 C 2 -2.617188 1.882812 -2.640625 1.75 -2.640625 C 1.445312 -2.640625 1.210938 -2.535156 1.046875 -2.328125 C 0.878906 -2.128906 0.796875 -1.851562 0.796875 -1.5 C 0.796875 -1.132812 0.878906 -0.851562 1.046875 -0.65625 C 1.210938 -0.46875 1.445312 -0.375 1.75 -0.375 C 1.882812 -0.375 2 -0.390625 2.09375 -0.421875 C 2.195312 -0.460938 2.300781 -0.519531 2.40625 -0.59375 C 2.445312 -0.625 2.488281 -0.648438 2.53125 -0.671875 C 2.570312 -0.691406 2.609375 -0.703125 2.640625 -0.703125 C 2.679688 -0.703125 2.71875 -0.679688 2.75 -0.640625 C 2.78125 -0.609375 2.796875 -0.5625 2.796875 -0.5 C 2.796875 -0.445312 2.78125 -0.398438 2.75 -0.359375 C 2.726562 -0.316406 2.675781 -0.269531 2.59375 -0.21875 C 2.476562 -0.132812 2.335938 -0.0664062 2.171875 -0.015625 C 2.015625 0.0234375 1.851562 0.046875 1.6875 0.046875 Z M 1.6875 0.046875 "/></g></g></g><g fill="#c64fff" fill-opacity="1"><g transform="translate(165.870543, 153.810223)"><g><path d="M 1.96875 -3.0625 C 2.320312 -3.0625 2.585938 -2.960938 2.765625 -2.765625 C 2.953125 -2.566406 3.046875 -2.269531 3.046875 -1.875 L 3.046875 -0.21875 C 3.046875 -0.132812 3.019531 -0.0703125 2.96875 -0.03125 C 2.925781 0.0078125 2.867188 0.03125 2.796875 0.03125 C 2.710938 0.03125 2.648438 0.0078125 2.609375 -0.03125 C 2.566406 -0.0703125 2.546875 -0.132812 2.546875 -0.21875 L 2.546875 -1.859375 C 2.546875 -2.128906 2.488281 -2.328125 2.375 -2.453125 C 2.269531 -2.578125 2.097656 -2.640625 1.859375 -2.640625 C 1.585938 -2.640625 1.367188 -2.554688 1.203125 -2.390625 C 1.035156 -2.222656 0.953125 -2 0.953125 -1.71875 L 0.953125 -0.21875 C 0.953125 -0.132812 0.929688 -0.0703125 0.890625 -0.03125 C 0.847656 0.0078125 0.789062 0.03125 0.71875 0.03125 C 0.632812 0.03125 0.566406 0.0078125 0.515625 -0.03125 C 0.472656 -0.0703125 0.453125 -0.132812 0.453125 -0.21875 L 0.453125 -4.125 C 0.453125 -4.1875 0.476562 -4.238281 0.53125 -4.28125 C 0.582031 -4.332031 0.644531 -4.359375 0.71875 -4.359375 C 0.789062 -4.359375 0.847656 -4.335938 0.890625 -4.296875 C 0.929688 -4.253906 0.953125 -4.195312 0.953125 -4.125 L 0.953125 -2.515625 C 1.054688 -2.691406 1.195312 -2.828125 1.375 -2.921875 C 1.550781 -3.015625 1.75 -3.0625 1.96875 -3.0625 Z M 1.96875 -3.0625 "/></g></g></g><g fill="#c64fff" fill-opacity="1"><g transform="translate(169.359189, 153.810223)"><g><path d="M 2.78125 -0.6875 C 2.820312 -0.6875 2.859375 -0.664062 2.890625 -0.625 C 2.921875 -0.59375 2.9375 -0.550781 2.9375 -0.5 C 2.9375 -0.394531 2.863281 -0.300781 2.71875 -0.21875 C 2.570312 -0.132812 2.414062 -0.0664062 2.25 -0.015625 C 2.09375 0.0234375 1.9375 0.046875 1.78125 0.046875 C 1.320312 0.046875 0.957031 -0.0859375 0.6875 -0.359375 C 0.414062 -0.640625 0.28125 -1.019531 0.28125 -1.5 C 0.28125 -1.8125 0.335938 -2.082031 0.453125 -2.3125 C 0.578125 -2.550781 0.742188 -2.734375 0.953125 -2.859375 C 1.171875 -2.992188 1.414062 -3.0625 1.6875 -3.0625 C 2.082031 -3.0625 2.394531 -2.929688 2.625 -2.671875 C 2.851562 -2.421875 2.96875 -2.082031 2.96875 -1.65625 C 2.96875 -1.570312 2.953125 -1.507812 2.921875 -1.46875 C 2.890625 -1.4375 2.832031 -1.421875 2.75 -1.421875 L 0.78125 -1.421875 C 0.8125 -0.710938 1.144531 -0.359375 1.78125 -0.359375 C 1.9375 -0.359375 2.070312 -0.378906 2.1875 -0.421875 C 2.300781 -0.460938 2.425781 -0.523438 2.5625 -0.609375 C 2.664062 -0.660156 2.738281 -0.6875 2.78125 -0.6875 Z M 1.703125 -2.671875 C 1.441406 -2.671875 1.226562 -2.585938 1.0625 -2.421875 C 0.90625 -2.265625 0.816406 -2.035156 0.796875 -1.734375 L 2.53125 -1.734375 C 2.519531 -2.035156 2.441406 -2.265625 2.296875 -2.421875 C 2.160156 -2.585938 1.960938 -2.671875 1.703125 -2.671875 Z M 1.703125 -2.671875 "/></g></g></g><g fill="#c64fff" fill-opacity="1"><g transform="translate(172.596011, 153.810223)"><g><path d="M 2.859375 -4.359375 C 2.941406 -4.359375 3.003906 -4.332031 3.046875 -4.28125 C 3.085938 -4.238281 3.109375 -4.1875 3.109375 -4.125 L 3.109375 -0.21875 C 3.109375 -0.144531 3.085938 -0.0820312 3.046875 -0.03125 C 3.003906 0.0078125 2.941406 0.03125 2.859375 0.03125 C 2.785156 0.03125 2.722656 0.0078125 2.671875 -0.03125 C 2.628906 -0.0820312 2.609375 -0.144531 2.609375 -0.21875 L 2.609375 -0.546875 C 2.523438 -0.359375 2.394531 -0.210938 2.21875 -0.109375 C 2.039062 -0.00390625 1.835938 0.046875 1.609375 0.046875 C 1.347656 0.046875 1.113281 -0.015625 0.90625 -0.140625 C 0.707031 -0.273438 0.550781 -0.460938 0.4375 -0.703125 C 0.332031 -0.941406 0.28125 -1.210938 0.28125 -1.515625 C 0.28125 -1.828125 0.332031 -2.097656 0.4375 -2.328125 C 0.550781 -2.566406 0.707031 -2.75 0.90625 -2.875 C 1.113281 -3 1.347656 -3.0625 1.609375 -3.0625 C 1.835938 -3.0625 2.039062 -3.007812 2.21875 -2.90625 C 2.394531 -2.800781 2.523438 -2.65625 2.609375 -2.46875 L 2.609375 -4.125 C 2.609375 -4.195312 2.628906 -4.253906 2.671875 -4.296875 C 2.722656 -4.335938 2.785156 -4.359375 2.859375 -4.359375 Z M 1.703125 -0.375 C 1.992188 -0.375 2.21875 -0.472656 2.375 -0.671875 C 2.53125 -0.867188 2.609375 -1.148438 2.609375 -1.515625 C 2.609375 -1.878906 2.53125 -2.15625 2.375 -2.34375 C 2.21875 -2.539062 1.992188 -2.640625 1.703125 -2.640625 C 1.410156 -2.640625 1.179688 -2.539062 1.015625 -2.34375 C 0.859375 -2.15625 0.78125 -1.878906 0.78125 -1.515625 C 0.78125 -1.148438 0.859375 -0.867188 1.015625 -0.671875 C 1.179688 -0.472656 1.410156 -0.375 1.703125 -0.375 Z M 1.703125 -0.375 "/></g></g></g><g fill="#c64fff" fill-opacity="1"><g transform="translate(176.170648, 153.810223)"><g><path d="M 2.734375 -3.046875 C 2.804688 -3.046875 2.863281 -3.023438 2.90625 -2.984375 C 2.957031 -2.941406 2.984375 -2.882812 2.984375 -2.8125 L 2.984375 -0.203125 C 2.984375 -0.140625 2.957031 -0.0820312 2.90625 -0.03125 C 2.863281 0.0078125 2.804688 0.03125 2.734375 0.03125 C 2.660156 0.03125 2.601562 0.0078125 2.5625 -0.03125 C 2.519531 -0.0703125 2.5 -0.128906 2.5 -0.203125 L 2.5 -0.515625 C 2.40625 -0.328125 2.269531 -0.1875 2.09375 -0.09375 C 1.925781 0 1.734375 0.046875 1.515625 0.046875 C 1.160156 0.046875 0.894531 -0.0507812 0.71875 -0.25 C 0.539062 -0.445312 0.453125 -0.742188 0.453125 -1.140625 L 0.453125 -2.8125 C 0.453125 -2.882812 0.472656 -2.941406 0.515625 -2.984375 C 0.554688 -3.023438 0.617188 -3.046875 0.703125 -3.046875 C 0.773438 -3.046875 0.832031 -3.023438 0.875 -2.984375 C 0.925781 -2.941406 0.953125 -2.882812 0.953125 -2.8125 L 0.953125 -1.140625 C 0.953125 -0.878906 1.003906 -0.6875 1.109375 -0.5625 C 1.210938 -0.4375 1.378906 -0.375 1.609375 -0.375 C 1.867188 -0.375 2.078125 -0.457031 2.234375 -0.625 C 2.398438 -0.800781 2.484375 -1.023438 2.484375 -1.296875 L 2.484375 -2.8125 C 2.484375 -2.882812 2.503906 -2.941406 2.546875 -2.984375 C 2.585938 -3.023438 2.648438 -3.046875 2.734375 -3.046875 Z M 2.734375 -3.046875 "/></g></g></g><g fill="#c64fff" fill-opacity="1"><g transform="translate(179.616291, 153.810223)"><g><path d="M 0.71875 0.03125 C 0.644531 0.03125 0.582031 0.0078125 0.53125 -0.03125 C 0.476562 -0.0703125 0.453125 -0.132812 0.453125 -0.21875 L 0.453125 -4.109375 C 0.453125 -4.191406 0.476562 -4.253906 0.53125 -4.296875 C 0.582031 -4.335938 0.644531 -4.359375 0.71875 -4.359375 C 0.78125 -4.359375 0.832031 -4.335938 0.875 -4.296875 C 0.925781 -4.253906 0.953125 -4.191406 0.953125 -4.109375 L 0.953125 -0.21875 C 0.953125 -0.132812 0.925781 -0.0703125 0.875 -0.03125 C 0.832031 0.0078125 0.78125 0.03125 0.71875 0.03125 Z M 0.71875 0.03125 "/></g></g></g><g fill="#c64fff" fill-opacity="1"><g transform="translate(181.041227, 153.810223)"><g><path d="M 2.78125 -0.6875 C 2.820312 -0.6875 2.859375 -0.664062 2.890625 -0.625 C 2.921875 -0.59375 2.9375 -0.550781 2.9375 -0.5 C 2.9375 -0.394531 2.863281 -0.300781 2.71875 -0.21875 C 2.570312 -0.132812 2.414062 -0.0664062 2.25 -0.015625 C 2.09375 0.0234375 1.9375 0.046875 1.78125 0.046875 C 1.320312 0.046875 0.957031 -0.0859375 0.6875 -0.359375 C 0.414062 -0.640625 0.28125 -1.019531 0.28125 -1.5 C 0.28125 -1.8125 0.335938 -2.082031 0.453125 -2.3125 C 0.578125 -2.550781 0.742188 -2.734375 0.953125 -2.859375 C 1.171875 -2.992188 1.414062 -3.0625 1.6875 -3.0625 C 2.082031 -3.0625 2.394531 -2.929688 2.625 -2.671875 C 2.851562 -2.421875 2.96875 -2.082031 2.96875 -1.65625 C 2.96875 -1.570312 2.953125 -1.507812 2.921875 -1.46875 C 2.890625 -1.4375 2.832031 -1.421875 2.75 -1.421875 L 0.78125 -1.421875 C 0.8125 -0.710938 1.144531 -0.359375 1.78125 -0.359375 C 1.9375 -0.359375 2.070312 -0.378906 2.1875 -0.421875 C 2.300781 -0.460938 2.425781 -0.523438 2.5625 -0.609375 C 2.664062 -0.660156 2.738281 -0.6875 2.78125 -0.6875 Z M 1.703125 -2.671875 C 1.441406 -2.671875 1.226562 -2.585938 1.0625 -2.421875 C 0.90625 -2.265625 0.816406 -2.035156 0.796875 -1.734375 L 2.53125 -1.734375 C 2.519531 -2.035156 2.441406 -2.265625 2.296875 -2.421875 C 2.160156 -2.585938 1.960938 -2.671875 1.703125 -2.671875 Z M 1.703125 -2.671875 "/></g></g></g><g fill="#c64fff" fill-opacity="1"><g transform="translate(184.278049, 153.810223)"><g><path d="M 1.46875 0.046875 C 1.28125 0.046875 1.097656 0.0234375 0.921875 -0.015625 C 0.753906 -0.0664062 0.609375 -0.132812 0.484375 -0.21875 C 0.410156 -0.257812 0.359375 -0.300781 0.328125 -0.34375 C 0.296875 -0.394531 0.28125 -0.453125 0.28125 -0.515625 C 0.28125 -0.566406 0.296875 -0.609375 0.328125 -0.640625 C 0.359375 -0.671875 0.394531 -0.6875 0.4375 -0.6875 C 0.488281 -0.6875 0.5625 -0.660156 0.65625 -0.609375 C 0.78125 -0.523438 0.898438 -0.460938 1.015625 -0.421875 C 1.140625 -0.378906 1.289062 -0.359375 1.46875 -0.359375 C 1.695312 -0.359375 1.867188 -0.394531 1.984375 -0.46875 C 2.109375 -0.550781 2.171875 -0.664062 2.171875 -0.8125 C 2.171875 -0.90625 2.144531 -0.976562 2.09375 -1.03125 C 2.050781 -1.09375 1.972656 -1.144531 1.859375 -1.1875 C 1.753906 -1.226562 1.597656 -1.269531 1.390625 -1.3125 C 1.023438 -1.394531 0.765625 -1.5 0.609375 -1.625 C 0.453125 -1.757812 0.375 -1.9375 0.375 -2.15625 C 0.375 -2.332031 0.421875 -2.488281 0.515625 -2.625 C 0.617188 -2.757812 0.757812 -2.863281 0.9375 -2.9375 C 1.113281 -3.019531 1.3125 -3.0625 1.53125 -3.0625 C 1.6875 -3.0625 1.835938 -3.039062 1.984375 -3 C 2.140625 -2.957031 2.273438 -2.894531 2.390625 -2.8125 C 2.523438 -2.71875 2.59375 -2.617188 2.59375 -2.515625 C 2.59375 -2.460938 2.578125 -2.414062 2.546875 -2.375 C 2.515625 -2.34375 2.476562 -2.328125 2.4375 -2.328125 C 2.382812 -2.328125 2.304688 -2.359375 2.203125 -2.421875 C 2.085938 -2.492188 1.976562 -2.550781 1.875 -2.59375 C 1.78125 -2.632812 1.65625 -2.65625 1.5 -2.65625 C 1.3125 -2.65625 1.15625 -2.613281 1.03125 -2.53125 C 0.914062 -2.445312 0.859375 -2.332031 0.859375 -2.1875 C 0.859375 -2.09375 0.878906 -2.019531 0.921875 -1.96875 C 0.972656 -1.914062 1.046875 -1.863281 1.140625 -1.8125 C 1.242188 -1.769531 1.390625 -1.726562 1.578125 -1.6875 C 1.859375 -1.632812 2.070312 -1.566406 2.21875 -1.484375 C 2.375 -1.410156 2.484375 -1.320312 2.546875 -1.21875 C 2.617188 -1.113281 2.65625 -0.976562 2.65625 -0.8125 C 2.65625 -0.5625 2.546875 -0.351562 2.328125 -0.1875 C 2.109375 -0.03125 1.820312 0.046875 1.46875 0.046875 Z M 1.46875 0.046875 "/></g></g></g><g clip-path="url(#c8ee20b699)"><g clip-path="url(#306d9940ec)"><path fill="url(#7685207ecf)" d="M 136.800781 66.863281 L 88.085938 66.863281 L 88.085938 113.332031 L 136.800781 113.332031 Z M 136.800781 66.863281 " fill-rule="nonzero"/></g></g><g clip-path="url(#a3d183dd1b)"><path fill="#ffffff" d="M 16.519531 47.605469 L 208.464844 47.605469 L 208.464844 186.199219 L 16.519531 186.199219 Z M 16.519531 47.605469 " fill-opacity="1" fill-rule="nonzero"/></g></svg>